<?xml version="1.0" encoding="UTF-8"?>
<svg width="560px" height="540px" viewBox="0 0 560 540" version="1.1" xmlns="http://www.w3.org/2000/svg" xmlns:xlink="http://www.w3.org/1999/xlink">
    <!-- Generator: Sketch 47 (45396) - http://www.bohemiancoding.com/sketch -->
    <title>Group</title>
    <desc>Created with Sketch.</desc>
    <defs></defs>
    <g id="Landing-Pages" stroke="none" stroke-width="1" fill="none" fill-rule="evenodd">
        <g id="Build" transform="translate(-43.000000, -50.000000)">
            <g id="Group" transform="translate(45.000000, 50.000000)">
                <circle id="Background" fill-opacity="0.65" fill="#00FFBD" fill-rule="nonzero" cx="275" cy="270" r="270"></circle>
                <g id="Code" transform="translate(0.000000, 82.000000)">
                    <rect id="Browser-Body" stroke="#4A4A4A" stroke-width="4" fill="#FFFFFF" fill-rule="nonzero" stroke-linecap="round" stroke-linejoin="round" transform="translate(278.000000, 184.000000) rotate(-90.000000) translate(-278.000000, -184.000000) " x="95" y="-94" width="366" height="556"></rect>
                    <g id="Heading">
                        <rect id="Rectangle-path-Copy-2" stroke="#4A4A4A" stroke-width="4" fill="#FFFFFF" fill-rule="nonzero" stroke-linecap="round" stroke-linejoin="round" transform="translate(278.000000, 13.500000) rotate(-90.000000) translate(-278.000000, -13.500000) " x="265.415638" y="-264.5" width="25.1687243" height="556"></rect>
                        <ellipse id="Oval-10" fill="#787878" cx="16.5884774" cy="12.9318182" rx="4.00411523" ry="3.97727273"></ellipse>
                        <ellipse id="Oval-10-Copy" fill="#A4A4A4" cx="27.4567901" cy="12.9318182" rx="4.00411523" ry="3.97727273"></ellipse>
                        <ellipse id="Oval-10-Copy-2" fill="#D2D2D2" cx="38.3251029" cy="12.9318182" rx="4.00411523" ry="3.97727273"></ellipse>
                    </g>
                    <path d="M48.44,85.56 L40.894,90.114 L48.44,94.646 L47.23,96.428 L38.782,91.17 L38.782,89.036 L47.296,83.778 L48.44,85.56 Z M58.8091586,94.998 C59.2564942,94.7193319 59.4801586,94.3380024 59.4801586,93.854 C59.4801586,93.516665 59.4141592,93.2416677 59.2821586,93.029 C59.1501579,92.8163323 58.8861606,92.6183343 58.4901586,92.435 C58.0941566,92.2516658 57.5001625,92.0573344 56.7081586,91.852 C55.4321522,91.5293317 54.4751618,91.1150025 53.8371586,90.609 C53.1991554,90.1029975 52.8801586,89.3733381 52.8801586,88.42 C52.8801586,87.4079949 53.2981544,86.5976697 54.1341586,85.989 C54.9701628,85.3803303 56.0994848,85.076 57.5221586,85.076 C59.2381672,85.076 60.7121524,85.5233289 61.9441586,86.418 L60.8881586,87.98 C59.84682,87.2906632 58.746831,86.946 57.5881586,86.946 C56.1214846,86.946 55.3881586,87.3713291 55.3881586,88.222 C55.3881586,88.5153348 55.4724911,88.7573324 55.6411586,88.948 C55.8098261,89.1386676 56.0994899,89.3183325 56.5101586,89.487 C56.9208273,89.6556675 57.5294879,89.8499989 58.3361586,90.07 C59.5974982,90.4220018 60.5398221,90.8546641 61.1631586,91.368 C61.786495,91.8813359 62.0981586,92.6513282 62.0981586,93.678 C62.0981586,94.8660059 61.6068302,95.7643303 60.6241586,96.373 C59.641487,96.9816697 58.4241658,97.286 56.9721586,97.286 C55.0508156,97.286 53.4594982,96.7433388 52.1981586,95.658 L53.4961586,94.162 C53.980161,94.5433352 54.5191556,94.8476655 55.1131586,95.075 C55.7071616,95.3023345 56.326822,95.416 56.9721586,95.416 C57.7494958,95.416 58.361823,95.2766681 58.8091586,94.998 Z M69.5633172,94.525 C70.1426534,95.0896695 70.8723128,95.372 71.7523172,95.372 C72.2949865,95.372 72.8119814,95.2876675 73.3033172,95.119 C73.794653,94.9503325 74.2969813,94.697335 74.8103172,94.36 L75.8663172,95.856 C75.3236478,96.3106689 74.6856542,96.6626654 73.9523172,96.912 C73.2189802,97.1613346 72.4489879,97.286 71.6423172,97.286 C69.8676416,97.286 68.4889887,96.7323389 67.5063172,95.625 C66.5236456,94.5176611 66.0323172,93.0400092 66.0323172,91.192 C66.0323172,90.0333275 66.2449817,88.988338 66.6703172,88.057 C67.0956526,87.125662 67.7116465,86.3960026 68.5183172,85.868 C69.3249879,85.3399974 70.2636451,85.076 71.3343172,85.076 C72.8743249,85.076 74.0953127,85.5929948 74.9973172,86.627 C75.8993217,87.6610052 76.3503172,89.079991 76.3503172,90.884 C76.3503172,91.3240022 76.3283174,91.6906652 76.2843172,91.984 L68.5843172,91.984 C68.6576509,93.113339 68.9839809,93.9603305 69.5633172,94.525 Z M69.4203172,87.76 C68.921648,88.3320029 68.6356509,89.182661 68.5623172,90.312 L73.9523172,90.312 C73.9229837,89.2119945 73.6883194,88.3686696 73.2483172,87.782 C72.808315,87.1953304 72.1776546,86.902 71.3563172,86.902 C70.5643132,86.902 69.9189863,87.1879971 69.4203172,87.76 Z M88.7984757,94.272 L89.9204757,95.856 C89.4071398,96.2960022 88.791146,96.6443321 88.0724757,96.901 C87.3538055,97.157668 86.6131462,97.286 85.8504757,97.286 C84.0758002,97.286 82.6898141,96.7396721 81.6924757,95.647 C80.6951374,94.5543279 80.1964757,93.0913425 80.1964757,91.258 C80.1964757,90.0699941 80.4238068,89.010338 80.8784757,88.079 C81.3331447,87.147662 81.9894715,86.414336 82.8474757,85.879 C83.70548,85.343664 84.7211365,85.076 85.8944757,85.076 C87.4344834,85.076 88.77647,85.5453286 89.9204757,86.484 L88.7764757,88.024 C87.8378044,87.3786634 86.8918138,87.056 85.9384757,87.056 C84.9704709,87.056 84.2078119,87.4043299 83.6504757,88.101 C83.0931396,88.7976701 82.8144757,89.849993 82.8144757,91.258 C82.8144757,92.6366736 83.0931396,93.6486634 83.6504757,94.294 C84.2078119,94.9393366 84.9704709,95.262 85.9384757,95.262 C86.8624804,95.262 87.8158042,94.9320033 88.7984757,94.272 Z M102.280634,97.044 C101.693965,97.2053341 101.077971,97.286 100.432634,97.286 C99.1126277,97.286 98.0933046,96.9450034 97.3746343,96.263 C96.6559641,95.5809966 96.2966343,94.6533392 96.2966343,93.48 L96.2966343,87.188 L93.7226343,87.188 L93.7226343,85.384 L96.2966343,85.384 L96.2966343,82.788 L98.7606343,82.502 L98.7606343,85.384 L102.698634,85.384 L102.412634,87.188 L98.7606343,87.188 L98.7606343,93.458 C98.7606343,94.0886698 98.921966,94.5543318 99.2446343,94.855 C99.5673026,95.1556682 100.080631,95.306 100.784634,95.306 C101.561972,95.306 102.280631,95.1226685 102.940634,94.756 L103.820634,96.384 C103.380632,96.6626681 102.867304,96.8826659 102.280634,97.044 Z M113.705793,80.137 C114.006461,80.4376682 114.156793,80.8079978 114.156793,81.248 C114.156793,81.6880022 114.006461,82.0546652 113.705793,82.348 C113.405125,82.6413348 113.020129,82.788 112.550793,82.788 C112.06679,82.788 111.678128,82.6413348 111.384793,82.348 C111.091458,82.0546652 110.944793,81.6880022 110.944793,81.248 C110.944793,80.7933311 111.095125,80.4193348 111.395793,80.126 C111.696461,79.8326652 112.081457,79.686 112.550793,79.686 C113.020129,79.686 113.405125,79.8363318 113.705793,80.137 Z M114.244793,95.196 L117.412793,95.196 L117.412793,97 L108.326793,97 L108.326793,95.196 L111.780793,95.196 L111.780793,87.188 L108.436793,87.188 L108.436793,85.384 L114.244793,85.384 L114.244793,95.196 Z M130.234951,86.715 C131.144289,87.8076721 131.598951,89.2926573 131.598951,91.17 C131.598951,93.0473427 131.136956,94.5359945 130.212951,95.636 C129.288947,96.7360055 127.998293,97.286 126.340951,97.286 C124.668943,97.286 123.374623,96.7470054 122.457951,95.669 C121.54128,94.5909946 121.082951,93.0986762 121.082951,91.192 C121.082951,89.3439908 121.548614,87.8626722 122.479951,86.748 C123.411289,85.6333278 124.70561,85.076 126.362951,85.076 C128.03496,85.076 129.325614,85.6223279 130.234951,86.715 Z M124.349951,88.024 C123.902616,88.7133368 123.678951,89.7693262 123.678951,91.192 C123.678951,92.6293405 123.898949,93.6889966 124.338951,94.371 C124.778954,95.0530034 125.44628,95.394 126.340951,95.394 C127.235623,95.394 127.902949,95.0493368 128.342951,94.36 C128.782954,93.6706632 129.002951,92.6073405 129.002951,91.17 C129.002951,89.7473262 128.782954,88.6950034 128.342951,88.013 C127.902949,87.3309966 127.242956,86.99 126.362951,86.99 C125.46828,86.99 124.797287,87.3346632 124.349951,88.024 Z M135.48911,85.384 L137.62311,85.384 L137.79911,86.902 C138.283112,86.3153304 138.85144,85.8643349 139.50411,85.549 C140.15678,85.2336651 140.84244,85.076 141.56111,85.076 C142.631782,85.076 143.438441,85.3766637 143.98111,85.978 C144.523779,86.5793363 144.79511,87.4299945 144.79511,88.53 L144.79511,97 L142.33111,97 L142.33111,89.762 C142.33111,89.0433297 142.290777,88.4896686 142.21011,88.101 C142.129443,87.7123314 141.971778,87.4263342 141.73711,87.243 C141.502442,87.0596657 141.150446,86.968 140.68111,86.968 C140.153107,86.968 139.650779,87.1293317 139.17411,87.452 C138.697441,87.7746683 138.290445,88.1779976 137.95311,88.662 L137.95311,97 L135.48911,97 L135.48911,85.384 Z M158.761269,89.036 L158.761269,91.17 L150.313269,96.428 L149.103269,94.668 L156.627269,90.114 L149.103269,85.604 L150.247269,83.778 L158.761269,89.036 Z M76.44,116.56 L68.894,121.114 L76.44,125.646 L75.23,127.428 L66.782,122.17 L66.782,120.036 L75.296,114.778 L76.44,116.56 Z M83.2121586,117.814 C83.6814943,117.241997 84.2278221,116.809335 84.8511586,116.516 C85.474495,116.222665 86.1308218,116.076 86.8201586,116.076 C87.8908306,116.076 88.6974892,116.372997 89.2401586,116.967 C89.782828,117.561003 90.0541586,118.415328 90.0541586,119.53 L90.0541586,128 L87.5901586,128 L87.5901586,119.904 C87.5901586,119.214663 87.4581599,118.719668 87.1941586,118.419 C86.9301573,118.118332 86.5048282,117.968 85.9181586,117.968 C85.4048227,117.968 84.9098276,118.132998 84.4331586,118.463 C83.9564895,118.793002 83.5494936,119.199998 83.2121586,119.684 L83.2121586,128 L80.7481586,128 L80.7481586,111.742 L83.2121586,111.478 L83.2121586,117.814 Z M97.5633172,125.525 C98.1426534,126.089669 98.8723128,126.372 99.7523172,126.372 C100.294987,126.372 100.811981,126.287668 101.303317,126.119 C101.794653,125.950332 102.296981,125.697335 102.810317,125.36 L103.866317,126.856 C103.323648,127.310669 102.685654,127.662665 101.952317,127.912 C101.21898,128.161335 100.448988,128.286 99.6423172,128.286 C97.8676416,128.286 96.4889887,127.732339 95.5063172,126.625 C94.5236456,125.517661 94.0323172,124.040009 94.0323172,122.192 C94.0323172,121.033328 94.2449817,119.988338 94.6703172,119.057 C95.0956526,118.125662 95.7116465,117.396003 96.5183172,116.868 C97.3249879,116.339997 98.2636451,116.076 99.3343172,116.076 C100.874325,116.076 102.095313,116.592995 102.997317,117.627 C103.899322,118.661005 104.350317,120.079991 104.350317,121.884 C104.350317,122.324002 104.328317,122.690665 104.284317,122.984 L96.5843172,122.984 C96.6576509,124.113339 96.9839809,124.960331 97.5633172,125.525 Z M97.4203172,118.76 C96.921648,119.332003 96.6356509,120.182661 96.5623172,121.312 L101.952317,121.312 C101.922984,120.211995 101.688319,119.36867 101.248317,118.782 C100.808315,118.19533 100.177655,117.902 99.3563172,117.902 C98.5643132,117.902 97.9189863,118.187997 97.4203172,118.76 Z M117.414476,126.141 C117.546476,126.353668 117.773807,126.511333 118.096476,126.614 L117.524476,128.286 C116.307136,128.139333 115.507811,127.604005 115.126476,126.68 C114.70114,127.208003 114.169479,127.607665 113.531476,127.879 C112.893473,128.150335 112.193146,128.286 111.430476,128.286 C110.257137,128.286 109.325813,127.956003 108.636476,127.296 C107.947139,126.635997 107.602476,125.763339 107.602476,124.678 C107.602476,123.460661 108.082804,122.522003 109.043476,121.862 C110.004147,121.201997 111.364467,120.872 113.124476,120.872 L114.774476,120.872 L114.774476,120.124 C114.774476,119.390663 114.554478,118.855335 114.114476,118.518 C113.674474,118.180665 113.03648,118.012 112.200476,118.012 C111.789807,118.012 111.313145,118.063333 110.770476,118.166 C110.227806,118.268667 109.677812,118.415332 109.120476,118.606 L108.504476,116.868 C109.897816,116.339997 111.254469,116.076 112.574476,116.076 C114.114483,116.076 115.273139,116.41333 116.050476,117.088 C116.827813,117.76267 117.216476,118.723327 117.216476,119.97 L117.216476,125.162 C117.216476,125.602002 117.282475,125.928332 117.414476,126.141 Z M113.641476,126.086 C114.118145,125.821999 114.495808,125.455336 114.774476,124.986 L114.774476,122.412 L113.410476,122.412 C112.295804,122.412 111.481812,122.598998 110.968476,122.973 C110.45514,123.347002 110.198476,123.885996 110.198476,124.59 C110.198476,125.206003 110.363474,125.675332 110.693476,125.998 C111.023477,126.320668 111.511139,126.482 112.156476,126.482 C112.669812,126.482 113.164807,126.350001 113.641476,126.086 Z M131.402634,111.72 L131.402634,128 L129.224634,128 L129.048634,126.57 C128.667299,127.127336 128.19797,127.552665 127.640634,127.846 C127.083298,128.139335 126.467304,128.286 125.792634,128.286 C124.340627,128.286 123.247971,127.743339 122.514634,126.658 C121.781297,125.572661 121.414634,124.084009 121.414634,122.192 C121.414634,121.003994 121.601632,119.948005 121.975634,119.024 C122.349636,118.099995 122.881298,117.377669 123.570634,116.857 C124.259971,116.336331 125.073963,116.076 126.012634,116.076 C127.20064,116.076 128.175964,116.501329 128.938634,117.352 L128.938634,111.434 L131.402634,111.72 Z M124.703634,119.013 C124.256299,119.70967 124.032634,120.769326 124.032634,122.192 C124.032634,125.008014 124.839293,126.416 126.452634,126.416 C127.420639,126.416 128.249298,125.858672 128.938634,124.744 L128.938634,119.266 C128.337298,118.400662 127.574639,117.968 126.650634,117.968 C125.799963,117.968 125.15097,118.31633 124.703634,119.013 Z M138.933793,125.525 C139.513129,126.089669 140.242789,126.372 141.122793,126.372 C141.665462,126.372 142.182457,126.287668 142.673793,126.119 C143.165129,125.950332 143.667457,125.697335 144.180793,125.36 L145.236793,126.856 C144.694124,127.310669 144.05613,127.662665 143.322793,127.912 C142.589456,128.161335 141.819464,128.286 141.012793,128.286 C139.238117,128.286 137.859464,127.732339 136.876793,126.625 C135.894121,125.517661 135.402793,124.040009 135.402793,122.192 C135.402793,121.033328 135.615457,119.988338 136.040793,119.057 C136.466128,118.125662 137.082122,117.396003 137.888793,116.868 C138.695464,116.339997 139.634121,116.076 140.704793,116.076 C142.244801,116.076 143.465788,116.592995 144.367793,117.627 C145.269797,118.661005 145.720793,120.079991 145.720793,121.884 C145.720793,122.324002 145.698793,122.690665 145.654793,122.984 L137.954793,122.984 C138.028127,124.113339 138.354457,124.960331 138.933793,125.525 Z M138.790793,118.76 C138.292124,119.332003 138.006127,120.182661 137.932793,121.312 L143.322793,121.312 C143.293459,120.211995 143.058795,119.36867 142.618793,118.782 C142.178791,118.19533 141.54813,117.902 140.726793,117.902 C139.934789,117.902 139.289462,118.187997 138.790793,118.76 Z M159.686951,116.384 L159.268951,120.674 L157.508951,120.674 L157.508951,118.298 C156.702281,118.312667 155.998288,118.63533 155.396951,119.266 C154.795615,119.89667 154.326287,120.783994 153.988951,121.928 L153.988951,126.24 L156.320951,126.24 L156.320951,128 L149.808951,128 L149.808951,126.24 L151.524951,126.24 L151.524951,118.144 L149.808951,118.144 L149.808951,116.384 L153.394951,116.384 L153.834951,119.068 C154.28962,118.070662 154.843282,117.326336 155.495951,116.835 C156.148621,116.343664 156.958947,116.098 157.926951,116.098 C158.528288,116.098 159.114949,116.193332 159.686951,116.384 Z M185.749269,125.272 L186.871269,126.856 C186.357933,127.296002 185.741939,127.644332 185.023269,127.901 C184.304598,128.157668 183.563939,128.286 182.801269,128.286 C181.026593,128.286 179.640607,127.739672 178.643269,126.647 C177.64593,125.554328 177.147269,124.091342 177.147269,122.258 C177.147269,121.069994 177.3746,120.010338 177.829269,119.079 C178.283938,118.147662 178.940264,117.414336 179.798269,116.879 C180.656273,116.343664 181.671929,116.076 182.845269,116.076 C184.385276,116.076 185.727263,116.545329 186.871269,117.484 L185.727269,119.024 C184.788597,118.378663 183.842607,118.056 182.889269,118.056 C181.921264,118.056 181.158605,118.40433 180.601269,119.101 C180.043933,119.79767 179.765269,120.849993 179.765269,122.258 C179.765269,123.636674 180.043933,124.648663 180.601269,125.294 C181.158605,125.939337 181.921264,126.262 182.889269,126.262 C183.813273,126.262 184.766597,125.932003 185.749269,125.272 Z M196.173427,124.832 C196.173427,125.814672 196.760088,126.306 197.933427,126.306 C198.520097,126.306 199.136091,126.174001 199.781427,125.91 L200.397427,127.626 C199.590757,128.066002 198.593433,128.286 197.405427,128.286 C196.246755,128.286 195.341097,127.95967 194.688427,127.307 C194.035757,126.65433 193.709427,125.756006 193.709427,124.612 L193.709427,113.524 L190.211427,113.524 L190.211427,111.72 L196.173427,111.72 L196.173427,124.832 Z M213.945586,126.141 C214.077586,126.353668 214.304918,126.511333 214.627586,126.614 L214.055586,128.286 C212.838246,128.139333 212.038921,127.604005 211.657586,126.68 C211.23225,127.208003 210.700589,127.607665 210.062586,127.879 C209.424583,128.150335 208.724256,128.286 207.961586,128.286 C206.788247,128.286 205.856923,127.956003 205.167586,127.296 C204.478249,126.635997 204.133586,125.763339 204.133586,124.678 C204.133586,123.460661 204.613914,122.522003 205.574586,121.862 C206.535257,121.201997 207.895577,120.872 209.655586,120.872 L211.305586,120.872 L211.305586,120.124 C211.305586,119.390663 211.085588,118.855335 210.645586,118.518 C210.205584,118.180665 209.56759,118.012 208.731586,118.012 C208.320917,118.012 207.844255,118.063333 207.301586,118.166 C206.758916,118.268667 206.208922,118.415332 205.651586,118.606 L205.035586,116.868 C206.428926,116.339997 207.785579,116.076 209.105586,116.076 C210.645594,116.076 211.804249,116.41333 212.581586,117.088 C213.358923,117.76267 213.747586,118.723327 213.747586,119.97 L213.747586,125.162 C213.747586,125.602002 213.813585,125.928332 213.945586,126.141 Z M210.172586,126.086 C210.649255,125.821999 211.026918,125.455336 211.305586,124.986 L211.305586,122.412 L209.941586,122.412 C208.826914,122.412 208.012922,122.598998 207.499586,122.973 C206.98625,123.347002 206.729586,123.885996 206.729586,124.59 C206.729586,125.206003 206.894584,125.675332 207.224586,125.998 C207.554587,126.320668 208.042249,126.482 208.687586,126.482 C209.200922,126.482 209.695917,126.350001 210.172586,126.086 Z M224.710744,125.998 C225.15808,125.719332 225.381744,125.338002 225.381744,124.854 C225.381744,124.516665 225.315745,124.241668 225.183744,124.029 C225.051744,123.816332 224.787746,123.618334 224.391744,123.435 C223.995742,123.251666 223.401748,123.057334 222.609744,122.852 C221.333738,122.529332 220.376748,122.115003 219.738744,121.609 C219.100741,121.102997 218.781744,120.373338 218.781744,119.42 C218.781744,118.407995 219.19974,117.59767 220.035744,116.989 C220.871749,116.38033 222.001071,116.076 223.423744,116.076 C225.139753,116.076 226.613738,116.523329 227.845744,117.418 L226.789744,118.98 C225.748406,118.290663 224.648417,117.946 223.489744,117.946 C222.02307,117.946 221.289744,118.371329 221.289744,119.222 C221.289744,119.515335 221.374077,119.757332 221.542744,119.948 C221.711412,120.138668 222.001076,120.318332 222.411744,120.487 C222.822413,120.655668 223.431074,120.849999 224.237744,121.07 C225.499084,121.422002 226.441408,121.854664 227.064744,122.368 C227.688081,122.881336 227.999744,123.651328 227.999744,124.678 C227.999744,125.866006 227.508416,126.76433 226.525744,127.373 C225.543073,127.98167 224.325752,128.286 222.873744,128.286 C220.952401,128.286 219.361084,127.743339 218.099744,126.658 L219.397744,125.162 C219.881747,125.543335 220.420741,125.847666 221.014744,126.075 C221.608747,126.302334 222.228408,126.416 222.873744,126.416 C223.651082,126.416 224.263409,126.276668 224.710744,125.998 Z M238.500903,125.998 C238.948239,125.719332 239.171903,125.338002 239.171903,124.854 C239.171903,124.516665 239.105904,124.241668 238.973903,124.029 C238.841902,123.816332 238.577905,123.618334 238.181903,123.435 C237.785901,123.251666 237.191907,123.057334 236.399903,122.852 C235.123897,122.529332 234.166906,122.115003 233.528903,121.609 C232.8909,121.102997 232.571903,120.373338 232.571903,119.42 C232.571903,118.407995 232.989899,117.59767 233.825903,116.989 C234.661907,116.38033 235.791229,116.076 237.213903,116.076 C238.929912,116.076 240.403897,116.523329 241.635903,117.418 L240.579903,118.98 C239.538564,118.290663 238.438575,117.946 237.279903,117.946 C235.813229,117.946 235.079903,118.371329 235.079903,119.222 C235.079903,119.515335 235.164235,119.757332 235.332903,119.948 C235.50157,120.138668 235.791234,120.318332 236.201903,120.487 C236.612572,120.655668 237.221232,120.849999 238.027903,121.07 C239.289243,121.422002 240.231567,121.854664 240.854903,122.368 C241.478239,122.881336 241.789903,123.651328 241.789903,124.678 C241.789903,125.866006 241.298575,126.76433 240.315903,127.373 C239.333231,127.98167 238.11591,128.286 236.663903,128.286 C234.74256,128.286 233.151243,127.743339 231.889903,126.658 L233.187903,125.162 C233.671905,125.543335 234.2109,125.847666 234.804903,126.075 C235.398906,126.302334 236.018566,126.416 236.663903,126.416 C237.44124,126.416 238.053567,126.276668 238.500903,125.998 Z M255.426062,119.992 L246.318062,119.992 L246.318062,117.968 L255.426062,117.968 L255.426062,119.992 Z M255.426062,124.326 L246.318062,124.326 L246.318062,122.324 L255.426062,122.324 L255.426062,124.326 Z M263.37522,117.253 C263.015885,117.597668 262.586889,117.77 262.08822,117.77 C261.574884,117.77 261.145889,117.597668 260.80122,117.253 C260.456552,116.908332 260.28422,116.494002 260.28422,116.01 C260.28422,115.775332 260.320886,115.522335 260.39422,115.251 C260.467554,114.979665 260.599553,114.646002 260.79022,114.25 L262.48422,110.642 L264.13422,110.642 L263.23222,114.624 C263.686889,114.961335 263.91422,115.42333 263.91422,116.01 C263.91422,116.494002 263.734555,116.908332 263.37522,117.253 Z M268.28122,117.253 C267.921885,117.597668 267.492889,117.77 266.99422,117.77 C266.480884,117.77 266.051889,117.597668 265.70722,117.253 C265.362552,116.908332 265.19022,116.494002 265.19022,116.01 C265.19022,115.760665 265.22322,115.504001 265.28922,115.24 C265.35522,114.975999 265.483553,114.646002 265.67422,114.25 L267.39022,110.642 L269.04022,110.642 L268.11622,114.624 C268.585556,114.976002 268.82022,115.437997 268.82022,116.01 C268.82022,116.494002 268.640555,116.908332 268.28122,117.253 Z M276.274379,117.814 C276.743714,117.241997 277.290042,116.809335 277.913379,116.516 C278.536715,116.222665 279.193042,116.076 279.882379,116.076 C280.953051,116.076 281.759709,116.372997 282.302379,116.967 C282.845048,117.561003 283.116379,118.415328 283.116379,119.53 L283.116379,128 L280.652379,128 L280.652379,119.904 C280.652379,119.214663 280.52038,118.719668 280.256379,118.419 C279.992377,118.118332 279.567048,117.968 278.980379,117.968 C278.467043,117.968 277.972048,118.132998 277.495379,118.463 C277.01871,118.793002 276.611714,119.199998 276.274379,119.684 L276.274379,128 L273.810379,128 L273.810379,111.742 L276.274379,111.478 L276.274379,117.814 Z M290.625537,125.525 C291.204874,126.089669 291.934533,126.372 292.814537,126.372 C293.357207,126.372 293.874202,126.287668 294.365537,126.119 C294.856873,125.950332 295.359201,125.697335 295.872537,125.36 L296.928537,126.856 C296.385868,127.310669 295.747874,127.662665 295.014537,127.912 C294.2812,128.161335 293.511208,128.286 292.704537,128.286 C290.929862,128.286 289.551209,127.732339 288.568537,126.625 C287.585866,125.517661 287.094537,124.040009 287.094537,122.192 C287.094537,121.033328 287.307202,119.988338 287.732537,119.057 C288.157873,118.125662 288.773867,117.396003 289.580537,116.868 C290.387208,116.339997 291.325865,116.076 292.396537,116.076 C293.936545,116.076 295.157533,116.592995 296.059537,117.627 C296.961542,118.661005 297.412537,120.079991 297.412537,121.884 C297.412537,122.324002 297.390538,122.690665 297.346537,122.984 L289.646537,122.984 C289.719871,124.113339 290.046201,124.960331 290.625537,125.525 Z M290.482537,118.76 C289.983868,119.332003 289.697871,120.182661 289.624537,121.312 L295.014537,121.312 C294.985204,120.211995 294.75054,119.36867 294.310537,118.782 C293.870535,118.19533 293.239875,117.902 292.418537,117.902 C291.626533,117.902 290.981206,118.187997 290.482537,118.76 Z M310.476696,126.141 C310.608697,126.353668 310.836028,126.511333 311.158696,126.614 L310.586696,128.286 C309.369356,128.139333 308.570031,127.604005 308.188696,126.68 C307.76336,127.208003 307.231699,127.607665 306.593696,127.879 C305.955693,128.150335 305.255366,128.286 304.492696,128.286 C303.319357,128.286 302.388033,127.956003 301.698696,127.296 C301.009359,126.635997 300.664696,125.763339 300.664696,124.678 C300.664696,123.460661 301.145024,122.522003 302.105696,121.862 C303.066367,121.201997 304.426687,120.872 306.186696,120.872 L307.836696,120.872 L307.836696,120.124 C307.836696,119.390663 307.616698,118.855335 307.176696,118.518 C306.736694,118.180665 306.0987,118.012 305.262696,118.012 C304.852027,118.012 304.375365,118.063333 303.832696,118.166 C303.290027,118.268667 302.740032,118.415332 302.182696,118.606 L301.566696,116.868 C302.960036,116.339997 304.316689,116.076 305.636696,116.076 C307.176704,116.076 308.335359,116.41333 309.112696,117.088 C309.890033,117.76267 310.278696,118.723327 310.278696,119.97 L310.278696,125.162 C310.278696,125.602002 310.344695,125.928332 310.476696,126.141 Z M306.703696,126.086 C307.180365,125.821999 307.558028,125.455336 307.836696,124.986 L307.836696,122.412 L306.472696,122.412 C305.358024,122.412 304.544032,122.598998 304.030696,122.973 C303.51736,123.347002 303.260696,123.885996 303.260696,124.59 C303.260696,125.206003 303.425694,125.675332 303.755696,125.998 C304.085698,126.320668 304.573359,126.482 305.218696,126.482 C305.732032,126.482 306.227027,126.350001 306.703696,126.086 Z M324.464854,111.72 L324.464854,128 L322.286854,128 L322.110854,126.57 C321.729519,127.127336 321.260191,127.552665 320.702854,127.846 C320.145518,128.139335 319.529525,128.286 318.854854,128.286 C317.402847,128.286 316.310191,127.743339 315.576854,126.658 C314.843517,125.572661 314.476854,124.084009 314.476854,122.192 C314.476854,121.003994 314.663853,119.948005 315.037854,119.024 C315.411856,118.099995 315.943518,117.377669 316.632854,116.857 C317.322191,116.336331 318.136183,116.076 319.074854,116.076 C320.26286,116.076 321.238184,116.501329 322.000854,117.352 L322.000854,111.434 L324.464854,111.72 Z M317.765854,119.013 C317.318519,119.70967 317.094854,120.769326 317.094854,122.192 C317.094854,125.008014 317.901513,126.416 319.514854,126.416 C320.482859,126.416 321.311518,125.858672 322.000854,124.744 L322.000854,119.266 C321.399518,118.400662 320.636859,117.968 319.712854,117.968 C318.862184,117.968 318.21319,118.31633 317.765854,119.013 Z M334.768013,111.137 C335.068681,111.437668 335.219013,111.807998 335.219013,112.248 C335.219013,112.688002 335.068681,113.054665 334.768013,113.348 C334.467345,113.641335 334.082349,113.788 333.613013,113.788 C333.129011,113.788 332.740348,113.641335 332.447013,113.348 C332.153678,113.054665 332.007013,112.688002 332.007013,112.248 C332.007013,111.793331 332.157345,111.419335 332.458013,111.126 C332.758681,110.832665 333.143677,110.686 333.613013,110.686 C334.082349,110.686 334.467345,110.836332 334.768013,111.137 Z M335.307013,126.196 L338.475013,126.196 L338.475013,128 L329.389013,128 L329.389013,126.196 L332.843013,126.196 L332.843013,118.188 L329.499013,118.188 L329.499013,116.384 L335.307013,116.384 L335.307013,126.196 Z M342.761172,116.384 L344.895172,116.384 L345.071172,117.902 C345.555174,117.31533 346.123502,116.864335 346.776172,116.549 C347.428842,116.233665 348.114501,116.076 348.833172,116.076 C349.903844,116.076 350.710502,116.376664 351.253172,116.978 C351.795841,117.579336 352.067172,118.429994 352.067172,119.53 L352.067172,128 L349.603172,128 L349.603172,120.762 C349.603172,120.04333 349.562839,119.489669 349.482172,119.101 C349.401505,118.712331 349.243839,118.426334 349.009172,118.243 C348.774504,118.059666 348.422507,117.968 347.953172,117.968 C347.425169,117.968 346.922841,118.129332 346.446172,118.452 C345.969503,118.774668 345.562507,119.177998 345.225172,119.662 L345.225172,128 L342.761172,128 L342.761172,116.384 Z M366.97933,116.956 C366.553995,117.102667 366.073666,117.201666 365.53833,117.253 C365.002994,117.304334 364.361334,117.33 363.61333,117.33 C364.317334,117.652668 364.845328,118.055998 365.19733,118.54 C365.549332,119.024002 365.72533,119.610663 365.72533,120.3 C365.72533,121.06267 365.538332,121.73733 365.16433,122.324 C364.790328,122.91067 364.258667,123.372665 363.56933,123.71 C362.879993,124.047335 362.066002,124.216 361.12733,124.216 C360.467327,124.216 359.939332,124.150001 359.54333,124.018 C359.381996,124.135334 359.257331,124.278332 359.16933,124.447 C359.08133,124.615668 359.03733,124.795332 359.03733,124.986 C359.03733,125.57267 359.513992,125.866 360.46733,125.866 L362.49133,125.866 C363.312668,125.866 364.045994,126.005332 364.69133,126.284 C365.336667,126.562668 365.838995,126.947664 366.19833,127.439 C366.557665,127.930336 366.73733,128.483997 366.73733,129.1 C366.73733,130.258672 366.238669,131.156997 365.24133,131.795 C364.243992,132.433003 362.806673,132.752 360.92933,132.752 C359.62399,132.752 358.593667,132.616335 357.83833,132.345 C357.082993,132.073665 356.547665,131.677669 356.23233,131.157 C355.916995,130.636331 355.75933,129.965337 355.75933,129.144 L357.95933,129.144 C357.95933,129.584002 358.043663,129.932332 358.21233,130.189 C358.380998,130.445668 358.677995,130.636333 359.10333,130.761 C359.528666,130.885667 360.14466,130.948 360.95133,130.948 C362.124669,130.948 362.967994,130.805001 363.48133,130.519 C363.994666,130.232999 364.25133,129.811336 364.25133,129.254 C364.25133,128.784664 364.049666,128.421668 363.64633,128.165 C363.242995,127.908332 362.696667,127.78 362.00733,127.78 L360.00533,127.78 C358.963992,127.78 358.175666,127.567335 357.64033,127.142 C357.104994,126.716665 356.83733,126.181337 356.83733,125.536 C356.83733,125.139998 356.947329,124.758668 357.16733,124.392 C357.387331,124.025331 357.702661,123.710001 358.11333,123.446 C357.423993,123.079332 356.921665,122.635669 356.60633,122.115 C356.290995,121.594331 356.13333,120.95267 356.13333,120.19 C356.13333,119.383329 356.338661,118.668336 356.74933,118.045 C357.159999,117.421664 357.731993,116.937668 358.46533,116.593 C359.198667,116.248332 360.034659,116.076 360.97333,116.076 C362.23467,116.090667 363.23566,116.002668 363.97633,115.812 C364.717001,115.621332 365.505326,115.320669 366.34133,114.91 L366.97933,116.956 Z M359.23533,118.441 C358.839328,118.873669 358.64133,119.456663 358.64133,120.19 C358.64133,120.938004 358.842995,121.528331 359.24633,121.961 C359.649666,122.393669 360.239993,122.61 361.01733,122.61 C361.750667,122.61 362.307995,122.397335 362.68933,121.972 C363.070665,121.546665 363.26133,120.938004 363.26133,120.146 C363.26133,118.576659 362.506004,117.792 360.99533,117.792 C360.217993,117.792 359.631332,118.008331 359.23533,118.441 Z M368.383489,120.102 L381.583489,120.102 L381.583489,122.126 L368.383489,122.126 L368.383489,120.102 Z M389.235647,124.832 C389.235647,125.814672 389.822308,126.306 390.995647,126.306 C391.582317,126.306 392.198311,126.174001 392.843647,125.91 L393.459647,127.626 C392.652977,128.066002 391.655653,128.286 390.467647,128.286 C389.308975,128.286 388.403317,127.95967 387.750647,127.307 C387.097977,126.65433 386.771647,125.756006 386.771647,124.612 L386.771647,113.524 L383.273647,113.524 L383.273647,111.72 L389.235647,111.72 L389.235647,124.832 Z M408.349806,116.956 C407.924471,117.102667 407.444142,117.201666 406.908806,117.253 C406.37347,117.304334 405.73181,117.33 404.983806,117.33 C405.687809,117.652668 406.215804,118.055998 406.567806,118.54 C406.919808,119.024002 407.095806,119.610663 407.095806,120.3 C407.095806,121.06267 406.908808,121.73733 406.534806,122.324 C406.160804,122.91067 405.629143,123.372665 404.939806,123.71 C404.250469,124.047335 403.436477,124.216 402.497806,124.216 C401.837803,124.216 401.309808,124.150001 400.913806,124.018 C400.752472,124.135334 400.627806,124.278332 400.539806,124.447 C400.451806,124.615668 400.407806,124.795332 400.407806,124.986 C400.407806,125.57267 400.884468,125.866 401.837806,125.866 L403.861806,125.866 C404.683143,125.866 405.416469,126.005332 406.061806,126.284 C406.707143,126.562668 407.209471,126.947664 407.568806,127.439 C407.928141,127.930336 408.107806,128.483997 408.107806,129.1 C408.107806,130.258672 407.609144,131.156997 406.611806,131.795 C405.614468,132.433003 404.177149,132.752 402.299806,132.752 C400.994466,132.752 399.964143,132.616335 399.208806,132.345 C398.453469,132.073665 397.918141,131.677669 397.602806,131.157 C397.287471,130.636331 397.129806,129.965337 397.129806,129.144 L399.329806,129.144 C399.329806,129.584002 399.414138,129.932332 399.582806,130.189 C399.751473,130.445668 400.048471,130.636333 400.473806,130.761 C400.899141,130.885667 401.515135,130.948 402.321806,130.948 C403.495145,130.948 404.33847,130.805001 404.851806,130.519 C405.365142,130.232999 405.621806,129.811336 405.621806,129.254 C405.621806,128.784664 405.420141,128.421668 405.016806,128.165 C404.613471,127.908332 404.067143,127.78 403.377806,127.78 L401.375806,127.78 C400.334467,127.78 399.546142,127.567335 399.010806,127.142 C398.47547,126.716665 398.207806,126.181337 398.207806,125.536 C398.207806,125.139998 398.317805,124.758668 398.537806,124.392 C398.757807,124.025331 399.073137,123.710001 399.483806,123.446 C398.794469,123.079332 398.292141,122.635669 397.976806,122.115 C397.661471,121.594331 397.503806,120.95267 397.503806,120.19 C397.503806,119.383329 397.709137,118.668336 398.119806,118.045 C398.530475,117.421664 399.102469,116.937668 399.835806,116.593 C400.569143,116.248332 401.405135,116.076 402.343806,116.076 C403.605146,116.090667 404.606136,116.002668 405.346806,115.812 C406.087476,115.621332 406.875802,115.320669 407.711806,114.91 L408.349806,116.956 Z M400.605806,118.441 C400.209804,118.873669 400.011806,119.456663 400.011806,120.19 C400.011806,120.938004 400.213471,121.528331 400.616806,121.961 C401.020141,122.393669 401.610469,122.61 402.387806,122.61 C403.121143,122.61 403.678471,122.397335 404.059806,121.972 C404.441141,121.546665 404.631806,120.938004 404.631806,120.146 C404.631806,118.576659 403.87648,117.792 402.365806,117.792 C401.588469,117.792 401.001808,118.008331 400.605806,118.441 Z M412.734965,111.104 C413.0943,110.766665 413.523295,110.598 414.021965,110.598 C414.5353,110.598 414.964296,110.762998 415.308965,111.093 C415.653633,111.423002 415.825965,111.837331 415.825965,112.336 C415.825965,112.585335 415.789298,112.834665 415.715965,113.084 C415.642631,113.333335 415.503299,113.677998 415.297965,114.118 L413.603965,117.704 L411.953965,117.704 L412.855965,113.722 C412.415962,113.384665 412.195965,112.92267 412.195965,112.336 C412.195965,111.851998 412.375629,111.441335 412.734965,111.104 Z M417.618965,111.104 C417.9783,110.766665 418.407295,110.598 418.905965,110.598 C419.4193,110.598 419.851963,110.762998 420.203965,111.093 C420.555966,111.423002 420.731965,111.837331 420.731965,112.336 C420.731965,112.600001 420.695298,112.856665 420.621965,113.106 C420.548631,113.355335 420.409299,113.692665 420.203965,114.118 L418.487965,117.704 L416.859965,117.704 L417.783965,113.722 C417.314629,113.369998 417.079965,112.908003 417.079965,112.336 C417.079965,111.851998 417.259629,111.441335 417.618965,111.104 Z M434.984123,120.036 L434.984123,122.17 L426.536123,127.428 L425.326123,125.668 L432.850123,121.114 L425.326123,116.604 L426.470123,114.778 L434.984123,120.036 Z M104.44,147.56 L96.894,152.114 L104.44,156.646 L103.23,158.428 L94.782,153.17 L94.782,151.036 L103.296,145.778 L104.44,147.56 Z M111.212159,148.814 C111.681494,148.241997 112.227822,147.809335 112.851159,147.516 C113.474495,147.222665 114.130822,147.076 114.820159,147.076 C115.890831,147.076 116.697489,147.372997 117.240159,147.967 C117.782828,148.561003 118.054159,149.415328 118.054159,150.53 L118.054159,159 L115.590159,159 L115.590159,150.904 C115.590159,150.214663 115.45816,149.719668 115.194159,149.419 C114.930157,149.118332 114.504828,148.968 113.918159,148.968 C113.404823,148.968 112.909828,149.132998 112.433159,149.463 C111.95649,149.793002 111.549494,150.199998 111.212159,150.684 L111.212159,159 L108.748159,159 L108.748159,142.742 L111.212159,142.478 L111.212159,148.814 Z M132.240317,157.064 L132.240317,159 L123.066317,159 L123.066317,157.064 L126.762317,157.064 L126.762317,146.35 L123.418317,148.396 L122.362317,146.68 L127.026317,143.82 L129.204317,143.82 L129.204317,157.064 L132.240317,157.064 Z M145.810476,151.036 L145.810476,153.17 L137.362476,158.428 L136.152476,156.668 L143.676476,152.114 L136.152476,147.604 L137.296476,145.778 L145.810476,151.036 Z M157.246634,152.092 L152.274634,152.092 L152.274634,159 L149.722634,159 L149.722634,143.82 L152.274634,143.82 L152.274634,150.002 L157.246634,150.002 L157.246634,143.82 L159.798634,143.82 L159.798634,159 L157.246634,159 L157.246634,152.092 Z M166.933793,156.525 C167.513129,157.089669 168.242789,157.372 169.122793,157.372 C169.665462,157.372 170.182457,157.287668 170.673793,157.119 C171.165129,156.950332 171.667457,156.697335 172.180793,156.36 L173.236793,157.856 C172.694124,158.310669 172.05613,158.662665 171.322793,158.912 C170.589456,159.161335 169.819464,159.286 169.012793,159.286 C167.238117,159.286 165.859464,158.732339 164.876793,157.625 C163.894121,156.517661 163.402793,155.040009 163.402793,153.192 C163.402793,152.033328 163.615457,150.988338 164.040793,150.057 C164.466128,149.125662 165.082122,148.396003 165.888793,147.868 C166.695464,147.339997 167.634121,147.076 168.704793,147.076 C170.244801,147.076 171.465788,147.592995 172.367793,148.627 C173.269797,149.661005 173.720793,151.079991 173.720793,152.884 C173.720793,153.324002 173.698793,153.690665 173.654793,153.984 L165.954793,153.984 C166.028127,155.113339 166.354457,155.960331 166.933793,156.525 Z M166.790793,149.76 C166.292124,150.332003 166.006127,151.182661 165.932793,152.312 L171.322793,152.312 C171.293459,151.211995 171.058795,150.36867 170.618793,149.782 C170.178791,149.19533 169.54813,148.902 168.726793,148.902 C167.934789,148.902 167.289462,149.187997 166.790793,149.76 Z M186.784951,157.141 C186.916952,157.353668 187.144283,157.511333 187.466951,157.614 L186.894951,159.286 C185.677612,159.139333 184.878287,158.604005 184.496951,157.68 C184.071616,158.208003 183.539955,158.607665 182.901951,158.879 C182.263948,159.150335 181.563622,159.286 180.800951,159.286 C179.627612,159.286 178.696288,158.956003 178.006951,158.296 C177.317615,157.635997 176.972951,156.763339 176.972951,155.678 C176.972951,154.460661 177.45328,153.522003 178.413951,152.862 C179.374623,152.201997 180.734943,151.872 182.494951,151.872 L184.144951,151.872 L184.144951,151.124 C184.144951,150.390663 183.924954,149.855335 183.484951,149.518 C183.044949,149.180665 182.406956,149.012 181.570951,149.012 C181.160283,149.012 180.683621,149.063333 180.140951,149.166 C179.598282,149.268667 179.048288,149.415332 178.490951,149.606 L177.874951,147.868 C179.268292,147.339997 180.624945,147.076 181.944951,147.076 C183.484959,147.076 184.643614,147.41333 185.420951,148.088 C186.198289,148.76267 186.586951,149.723327 186.586951,150.97 L186.586951,156.162 C186.586951,156.602002 186.652951,156.928332 186.784951,157.141 Z M183.011951,157.086 C183.488621,156.821999 183.866283,156.455336 184.144951,155.986 L184.144951,153.412 L182.780951,153.412 C181.666279,153.412 180.852287,153.598998 180.338951,153.973 C179.825616,154.347002 179.568951,154.885996 179.568951,155.59 C179.568951,156.206003 179.73395,156.675332 180.063951,156.998 C180.393953,157.320668 180.881615,157.482 181.526951,157.482 C182.040287,157.482 182.535282,157.350001 183.011951,157.086 Z M200.77311,142.72 L200.77311,159 L198.59511,159 L198.41911,157.57 C198.037775,158.127336 197.568446,158.552665 197.01111,158.846 C196.453774,159.139335 195.83778,159.286 195.16311,159.286 C193.711103,159.286 192.618447,158.743339 191.88511,157.658 C191.151773,156.572661 190.78511,155.084009 190.78511,153.192 C190.78511,152.003994 190.972108,150.948005 191.34611,150.024 C191.720112,149.099995 192.251773,148.377669 192.94111,147.857 C193.630447,147.336331 194.444439,147.076 195.38311,147.076 C196.571116,147.076 197.54644,147.501329 198.30911,148.352 L198.30911,142.434 L200.77311,142.72 Z M194.07411,150.013 C193.626775,150.70967 193.40311,151.769326 193.40311,153.192 C193.40311,156.008014 194.209769,157.416 195.82311,157.416 C196.791115,157.416 197.619773,156.858672 198.30911,155.744 L198.30911,150.266 C197.707774,149.400662 196.945115,148.968 196.02111,148.968 C195.170439,148.968 194.521446,149.31633 194.07411,150.013 Z M211.076269,142.137 C211.376937,142.437668 211.527269,142.807998 211.527269,143.248 C211.527269,143.688002 211.376937,144.054665 211.076269,144.348 C210.7756,144.641335 210.390604,144.788 209.921269,144.788 C209.437266,144.788 209.048603,144.641335 208.755269,144.348 C208.461934,144.054665 208.315269,143.688002 208.315269,143.248 C208.315269,142.793331 208.4656,142.419335 208.766269,142.126 C209.066937,141.832665 209.451933,141.686 209.921269,141.686 C210.390604,141.686 210.7756,141.836332 211.076269,142.137 Z M211.615269,157.196 L214.783269,157.196 L214.783269,159 L205.697269,159 L205.697269,157.196 L209.151269,157.196 L209.151269,149.188 L205.807269,149.188 L205.807269,147.384 L211.615269,147.384 L211.615269,157.196 Z M219.069427,147.384 L221.203427,147.384 L221.379427,148.902 C221.86343,148.31533 222.431757,147.864335 223.084427,147.549 C223.737097,147.233665 224.422757,147.076 225.141427,147.076 C226.212099,147.076 227.018758,147.376664 227.561427,147.978 C228.104097,148.579336 228.375427,149.429994 228.375427,150.53 L228.375427,159 L225.911427,159 L225.911427,151.762 C225.911427,151.04333 225.871094,150.489669 225.790427,150.101 C225.70976,149.712331 225.552095,149.426334 225.317427,149.243 C225.082759,149.059666 224.730763,148.968 224.261427,148.968 C223.733425,148.968 223.231096,149.129332 222.754427,149.452 C222.277758,149.774668 221.870762,150.177998 221.533427,150.662 L221.533427,159 L219.069427,159 L219.069427,147.384 Z M243.287586,147.956 C242.86225,148.102667 242.381922,148.201666 241.846586,148.253 C241.31125,148.304334 240.66959,148.33 239.921586,148.33 C240.625589,148.652668 241.153584,149.055998 241.505586,149.54 C241.857588,150.024002 242.033586,150.610663 242.033586,151.3 C242.033586,152.06267 241.846588,152.73733 241.472586,153.324 C241.098584,153.91067 240.566923,154.372665 239.877586,154.71 C239.188249,155.047335 238.374257,155.216 237.435586,155.216 C236.775583,155.216 236.247588,155.150001 235.851586,155.018 C235.690252,155.135334 235.565586,155.278332 235.477586,155.447 C235.389585,155.615668 235.345586,155.795332 235.345586,155.986 C235.345586,156.57267 235.822248,156.866 236.775586,156.866 L238.799586,156.866 C239.620923,156.866 240.354249,157.005332 240.999586,157.284 C241.644922,157.562668 242.147251,157.947664 242.506586,158.439 C242.865921,158.930336 243.045586,159.483997 243.045586,160.1 C243.045586,161.258672 242.546924,162.156997 241.549586,162.795 C240.552247,163.433003 239.114929,163.752 237.237586,163.752 C235.932246,163.752 234.901923,163.616335 234.146586,163.345 C233.391249,163.073665 232.855921,162.677669 232.540586,162.157 C232.225251,161.636331 232.067586,160.965337 232.067586,160.144 L234.267586,160.144 C234.267586,160.584002 234.351918,160.932332 234.520586,161.189 C234.689253,161.445668 234.98625,161.636333 235.411586,161.761 C235.836921,161.885667 236.452915,161.948 237.259586,161.948 C238.432925,161.948 239.27625,161.805001 239.789586,161.519 C240.302922,161.232999 240.559586,160.811336 240.559586,160.254 C240.559586,159.784664 240.357921,159.421668 239.954586,159.165 C239.55125,158.908332 239.004923,158.78 238.315586,158.78 L236.313586,158.78 C235.272247,158.78 234.483922,158.567335 233.948586,158.142 C233.41325,157.716665 233.145586,157.181337 233.145586,156.536 C233.145586,156.139998 233.255585,155.758668 233.475586,155.392 C233.695587,155.025332 234.010917,154.710001 234.421586,154.446 C233.732249,154.079331 233.229921,153.635669 232.914586,153.115 C232.599251,152.594331 232.441586,151.95267 232.441586,151.19 C232.441586,150.383329 232.646917,149.668336 233.057586,149.045 C233.468255,148.421664 234.040249,147.937668 234.773586,147.593 C235.506923,147.248332 236.342914,147.076 237.281586,147.076 C238.542925,147.090667 239.543915,147.002668 240.284586,146.812 C241.025256,146.621332 241.813582,146.320669 242.649586,145.91 L243.287586,147.956 Z M235.543586,149.441 C235.147584,149.873669 234.949586,150.456663 234.949586,151.19 C234.949586,151.938004 235.15125,152.528331 235.554586,152.961 C235.957921,153.393669 236.548249,153.61 237.325586,153.61 C238.058923,153.61 238.616251,153.397335 238.997586,152.972 C239.378921,152.546665 239.569586,151.938004 239.569586,151.146 C239.569586,149.576659 238.81426,148.792 237.303586,148.792 C236.526249,148.792 235.939588,149.008331 235.543586,149.441 Z M266.335903,159 L263.783903,159 L263.783903,145.888 L259.207903,145.888 L259.207903,143.82 L270.977903,143.82 L270.713903,145.888 L266.335903,145.888 L266.335903,159 Z M277.255062,156.525 C277.834398,157.089669 278.564057,157.372 279.444062,157.372 C279.986731,157.372 280.503726,157.287668 280.995062,157.119 C281.486397,156.950332 281.988726,156.697335 282.502062,156.36 L283.558062,157.856 C283.015392,158.310669 282.377399,158.662665 281.644062,158.912 C280.910725,159.161335 280.140732,159.286 279.334062,159.286 C277.559386,159.286 276.180733,158.732339 275.198062,157.625 C274.21539,156.517661 273.724062,155.040009 273.724062,153.192 C273.724062,152.033328 273.936726,150.988338 274.362062,150.057 C274.787397,149.125662 275.403391,148.396003 276.210062,147.868 C277.016732,147.339997 277.95539,147.076 279.026062,147.076 C280.566069,147.076 281.787057,147.592995 282.689062,148.627 C283.591066,149.661005 284.042062,151.079991 284.042062,152.884 C284.042062,153.324002 284.020062,153.690665 283.976062,153.984 L276.276062,153.984 C276.349395,155.113339 276.675725,155.960331 277.255062,156.525 Z M277.112062,149.76 C276.613392,150.332003 276.327395,151.182661 276.254062,152.312 L281.644062,152.312 C281.614728,151.211995 281.380064,150.36867 280.940062,149.782 C280.500059,149.19533 279.869399,148.902 279.048062,148.902 C278.256058,148.902 277.610731,149.187997 277.112062,149.76 Z M287.00822,159 L291.18822,152.884 L287.47022,147.384 L290.30822,147.384 L292.68422,151.476 L295.06022,147.384 L297.76622,147.384 L294.13622,152.774 L298.31622,159 L295.43422,159 L292.57422,154.248 L289.73622,159 L287.00822,159 Z M309.972379,159.044 C309.385709,159.205334 308.769715,159.286 308.124379,159.286 C306.804372,159.286 305.785049,158.945003 305.066379,158.263 C304.347708,157.580997 303.988379,156.653339 303.988379,155.48 L303.988379,149.188 L301.414379,149.188 L301.414379,147.384 L303.988379,147.384 L303.988379,144.788 L306.452379,144.502 L306.452379,147.384 L310.390379,147.384 L310.104379,149.188 L306.452379,149.188 L306.452379,155.458 C306.452379,156.08867 306.61371,156.554332 306.936379,156.855 C307.259047,157.155668 307.772375,157.306 308.476379,157.306 C309.253716,157.306 309.972375,157.122669 310.632379,156.756 L311.512379,158.384 C311.072377,158.662668 310.559048,158.882666 309.972379,159.044 Z M337.464696,142.038 L327.586696,162.476 L325.628696,161.596 L326.530696,159.704 L316.014696,153.17 L316.014696,151.036 L324.528696,145.778 L325.672696,147.56 L318.126696,152.114 L327.476696,157.768 L335.528696,141.136 L337.464696,142.038 Z M345.644854,148.814 C346.11419,148.241997 346.660518,147.809335 347.283854,147.516 C347.907191,147.222665 348.563518,147.076 349.252854,147.076 C350.323526,147.076 351.130185,147.372997 351.672854,147.967 C352.215524,148.561003 352.486854,149.415328 352.486854,150.53 L352.486854,159 L350.022854,159 L350.022854,150.904 C350.022854,150.214663 349.890856,149.719668 349.626854,149.419 C349.362853,149.118332 348.937524,148.968 348.350854,148.968 C347.837519,148.968 347.342524,149.132998 346.865854,149.463 C346.389185,149.793002 345.982189,150.199998 345.644854,150.684 L345.644854,159 L343.180854,159 L343.180854,142.742 L345.644854,142.478 L345.644854,148.814 Z M366.673013,157.064 L366.673013,159 L357.499013,159 L357.499013,157.064 L361.195013,157.064 L361.195013,146.35 L357.851013,148.396 L356.795013,146.68 L361.459013,143.82 L363.637013,143.82 L363.637013,157.064 L366.673013,157.064 Z M380.243172,151.036 L380.243172,153.17 L371.795172,158.428 L370.585172,156.668 L378.109172,152.114 L370.585172,147.604 L371.729172,145.778 L380.243172,151.036 Z M88.8221586,173.038 L78.9441586,193.476 L76.9861586,192.596 L77.8881586,190.704 L67.3721586,184.17 L67.3721586,182.036 L75.8861586,176.778 L77.0301586,178.56 L69.4841586,183.114 L78.8341586,188.768 L86.8861586,172.136 L88.8221586,173.038 Z M97.0023172,179.814 C97.4716528,179.241997 98.0179807,178.809335 98.6413172,178.516 C99.2646536,178.222665 99.9209804,178.076 100.610317,178.076 C101.680989,178.076 102.487648,178.372997 103.030317,178.967 C103.572987,179.561003 103.844317,180.415328 103.844317,181.53 L103.844317,190 L101.380317,190 L101.380317,181.904 C101.380317,181.214663 101.248318,180.719668 100.984317,180.419 C100.720316,180.118332 100.294987,179.968 99.7083172,179.968 C99.1949813,179.968 98.6999862,180.132998 98.2233172,180.463 C97.7466481,180.793002 97.3396522,181.199998 97.0023172,181.684 L97.0023172,190 L94.5383172,190 L94.5383172,173.742 L97.0023172,173.478 L97.0023172,179.814 Z M111.353476,187.525 C111.932812,188.089669 112.662471,188.372 113.542476,188.372 C114.085145,188.372 114.60214,188.287668 115.093476,188.119 C115.584812,187.950332 116.08714,187.697335 116.600476,187.36 L117.656476,188.856 C117.113806,189.310669 116.475813,189.662665 115.742476,189.912 C115.009139,190.161335 114.239146,190.286 113.432476,190.286 C111.6578,190.286 110.279147,189.732339 109.296476,188.625 C108.313804,187.517661 107.822476,186.040009 107.822476,184.192 C107.822476,183.033328 108.03514,181.988338 108.460476,181.057 C108.885811,180.125662 109.501805,179.396003 110.308476,178.868 C111.115146,178.339997 112.053804,178.076 113.124476,178.076 C114.664483,178.076 115.885471,178.592995 116.787476,179.627 C117.68948,180.661005 118.140476,182.079991 118.140476,183.884 C118.140476,184.324002 118.118476,184.690665 118.074476,184.984 L110.374476,184.984 C110.447809,186.113339 110.77414,186.960331 111.353476,187.525 Z M111.210476,180.76 C110.711807,181.332003 110.425809,182.182661 110.352476,183.312 L115.742476,183.312 C115.713142,182.211995 115.478478,181.36867 115.038476,180.782 C114.598474,180.19533 113.967813,179.902 113.146476,179.902 C112.354472,179.902 111.709145,180.187997 111.210476,180.76 Z M131.204634,188.141 C131.336635,188.353668 131.563966,188.511333 131.886634,188.614 L131.314634,190.286 C130.097295,190.139333 129.29797,189.604005 128.916634,188.68 C128.491299,189.208003 127.959638,189.607665 127.321634,189.879 C126.683631,190.150335 125.983305,190.286 125.220634,190.286 C124.047295,190.286 123.115971,189.956003 122.426634,189.296 C121.737298,188.635997 121.392634,187.763339 121.392634,186.678 C121.392634,185.460661 121.872963,184.522003 122.833634,183.862 C123.794306,183.201997 125.154626,182.872 126.914634,182.872 L128.564634,182.872 L128.564634,182.124 C128.564634,181.390663 128.344637,180.855335 127.904634,180.518 C127.464632,180.180665 126.826639,180.012 125.990634,180.012 C125.579966,180.012 125.103304,180.063333 124.560634,180.166 C124.017965,180.268667 123.46797,180.415332 122.910634,180.606 L122.294634,178.868 C123.687975,178.339997 125.044628,178.076 126.364634,178.076 C127.904642,178.076 129.063297,178.41333 129.840634,179.088 C130.617972,179.76267 131.006634,180.723327 131.006634,181.97 L131.006634,187.162 C131.006634,187.602002 131.072634,187.928332 131.204634,188.141 Z M127.431634,188.086 C127.908303,187.821999 128.285966,187.455336 128.564634,186.986 L128.564634,184.412 L127.200634,184.412 C126.085962,184.412 125.27197,184.598998 124.758634,184.973 C124.245298,185.347002 123.988634,185.885996 123.988634,186.59 C123.988634,187.206003 124.153633,187.675332 124.483634,187.998 C124.813636,188.320668 125.301298,188.482 125.946634,188.482 C126.45997,188.482 126.954965,188.350001 127.431634,188.086 Z M145.192793,173.72 L145.192793,190 L143.014793,190 L142.838793,188.57 C142.457458,189.127336 141.988129,189.552665 141.430793,189.846 C140.873457,190.139335 140.257463,190.286 139.582793,190.286 C138.130786,190.286 137.03813,189.743339 136.304793,188.658 C135.571456,187.572661 135.204793,186.084009 135.204793,184.192 C135.204793,183.003994 135.391791,181.948005 135.765793,181.024 C136.139795,180.099995 136.671456,179.377669 137.360793,178.857 C138.05013,178.336331 138.864122,178.076 139.802793,178.076 C140.990799,178.076 141.966122,178.501329 142.728793,179.352 L142.728793,173.434 L145.192793,173.72 Z M138.493793,181.013 C138.046457,181.70967 137.822793,182.769326 137.822793,184.192 C137.822793,187.008014 138.629452,188.416 140.242793,188.416 C141.210798,188.416 142.039456,187.858672 142.728793,186.744 L142.728793,181.266 C142.127457,180.400662 141.364798,179.968 140.440793,179.968 C139.590122,179.968 138.941128,180.31633 138.493793,181.013 Z M152.723951,187.525 C153.303288,188.089669 154.032947,188.372 154.912951,188.372 C155.455621,188.372 155.972616,188.287668 156.463951,188.119 C156.955287,187.950332 157.457616,187.697335 157.970951,187.36 L159.026951,188.856 C158.484282,189.310669 157.846288,189.662665 157.112951,189.912 C156.379614,190.161335 155.609622,190.286 154.802951,190.286 C153.028276,190.286 151.649623,189.732339 150.666951,188.625 C149.68428,187.517661 149.192951,186.040009 149.192951,184.192 C149.192951,183.033328 149.405616,181.988338 149.830951,181.057 C150.256287,180.125662 150.872281,179.396003 151.678951,178.868 C152.485622,178.339997 153.424279,178.076 154.494951,178.076 C156.034959,178.076 157.255947,178.592995 158.157951,179.627 C159.059956,180.661005 159.510951,182.079991 159.510951,183.884 C159.510951,184.324002 159.488952,184.690665 159.444951,184.984 L151.744951,184.984 C151.818285,186.113339 152.144615,186.960331 152.723951,187.525 Z M152.580951,180.76 C152.082282,181.332003 151.796285,182.182661 151.722951,183.312 L157.112951,183.312 C157.083618,182.211995 156.848954,181.36867 156.408951,180.782 C155.968949,180.19533 155.338289,179.902 154.516951,179.902 C153.724948,179.902 153.079621,180.187997 152.580951,180.76 Z M173.47711,178.384 L173.05911,182.674 L171.29911,182.674 L171.29911,180.298 C170.492439,180.312667 169.788446,180.63533 169.18711,181.266 C168.585774,181.89667 168.116445,182.783994 167.77911,183.928 L167.77911,188.24 L170.11111,188.24 L170.11111,190 L163.59911,190 L163.59911,188.24 L165.31511,188.24 L165.31511,180.144 L163.59911,180.144 L163.59911,178.384 L167.18511,178.384 L167.62511,181.068 C168.079779,180.070662 168.63344,179.326336 169.28611,178.835 C169.93878,178.343664 170.749105,178.098 171.71711,178.098 C172.318446,178.098 172.905107,178.193332 173.47711,178.384 Z M186.761269,182.036 L186.761269,184.17 L178.313269,189.428 L177.103269,187.668 L184.627269,183.114 L177.103269,178.604 L178.247269,176.778 L186.761269,182.036 Z M76.44,209.56 L68.894,214.114 L76.44,218.646 L75.23,220.428 L66.782,215.17 L66.782,213.036 L75.296,207.778 L76.44,209.56 Z M90.0321586,204.72 L90.0321586,221 L87.8541586,221 L87.6781586,219.57 C87.2968233,220.127336 86.8274947,220.552665 86.2701586,220.846 C85.7128225,221.139335 85.0968286,221.286 84.4221586,221.286 C82.9701513,221.286 81.8774956,220.743339 81.1441586,219.658 C80.4108216,218.572661 80.0441586,217.084009 80.0441586,215.192 C80.0441586,214.003994 80.2311567,212.948005 80.6051586,212.024 C80.9791605,211.099995 81.5108218,210.377669 82.2001586,209.857 C82.8894954,209.336331 83.7034872,209.076 84.6421586,209.076 C85.8301645,209.076 86.8054881,209.501329 87.5681586,210.352 L87.5681586,204.434 L90.0321586,204.72 Z M83.3331586,212.013 C82.885823,212.70967 82.6621586,213.769326 82.6621586,215.192 C82.6621586,218.008014 83.4688172,219.416 85.0821586,219.416 C86.0501634,219.416 86.8788218,218.858672 87.5681586,217.744 L87.5681586,212.266 C86.9668222,211.400662 86.2041632,210.968 85.2801586,210.968 C84.4294877,210.968 83.7804942,211.31633 83.3331586,212.013 Z M100.335317,204.137 C100.635985,204.437668 100.786317,204.807998 100.786317,205.248 C100.786317,205.688002 100.635985,206.054665 100.335317,206.348 C100.034649,206.641335 99.6496528,206.788 99.1803172,206.788 C98.6963147,206.788 98.307652,206.641335 98.0143172,206.348 C97.7209824,206.054665 97.5743172,205.688002 97.5743172,205.248 C97.5743172,204.793331 97.724649,204.419335 98.0253172,204.126 C98.3259853,203.832665 98.7109815,203.686 99.1803172,203.686 C99.6496528,203.686 100.034649,203.836332 100.335317,204.137 Z M100.874317,219.196 L104.042317,219.196 L104.042317,221 L94.9563172,221 L94.9563172,219.196 L98.4103172,219.196 L98.4103172,211.188 L95.0663172,211.188 L95.0663172,209.384 L100.874317,209.384 L100.874317,219.196 Z M114.400476,221 L111.540476,221 L107.426476,209.384 L110.088476,209.384 L113.014476,218.954 L115.984476,209.384 L118.514476,209.384 L114.400476,221 Z M144.378793,218.272 L145.500793,219.856 C144.987457,220.296002 144.371463,220.644332 143.652793,220.901 C142.934123,221.157668 142.193463,221.286 141.430793,221.286 C139.656117,221.286 138.270131,220.739672 137.272793,219.647 C136.275455,218.554328 135.776793,217.091342 135.776793,215.258 C135.776793,214.069994 136.004124,213.010338 136.458793,212.079 C136.913462,211.147662 137.569789,210.414336 138.427793,209.879 C139.285797,209.343664 140.301454,209.076 141.474793,209.076 C143.014801,209.076 144.356787,209.545329 145.500793,210.484 L144.356793,212.024 C143.418122,211.378663 142.472131,211.056 141.518793,211.056 C140.550788,211.056 139.788129,211.40433 139.230793,212.101 C138.673457,212.79767 138.394793,213.849993 138.394793,215.258 C138.394793,216.636674 138.673457,217.648663 139.230793,218.294 C139.788129,218.939337 140.550788,219.262 141.518793,219.262 C142.442798,219.262 143.396121,218.932003 144.378793,218.272 Z M154.802951,217.832 C154.802951,218.814672 155.389612,219.306 156.562951,219.306 C157.149621,219.306 157.765615,219.174001 158.410951,218.91 L159.026951,220.626 C158.220281,221.066002 157.222957,221.286 156.034951,221.286 C154.876279,221.286 153.970621,220.95967 153.317951,220.307 C152.665282,219.65433 152.338951,218.756006 152.338951,217.612 L152.338951,206.524 L148.840951,206.524 L148.840951,204.72 L154.802951,204.72 L154.802951,217.832 Z M172.57511,219.141 C172.707111,219.353668 172.934442,219.511333 173.25711,219.614 L172.68511,221.286 C171.467771,221.139333 170.668445,220.604005 170.28711,219.68 C169.861775,220.208003 169.330113,220.607665 168.69211,220.879 C168.054107,221.150335 167.353781,221.286 166.59111,221.286 C165.417771,221.286 164.486447,220.956003 163.79711,220.296 C163.107773,219.635997 162.76311,218.763339 162.76311,217.678 C162.76311,216.460661 163.243439,215.522003 164.20411,214.862 C165.164782,214.201997 166.525101,213.872 168.28511,213.872 L169.93511,213.872 L169.93511,213.124 C169.93511,212.390663 169.715112,211.855335 169.27511,211.518 C168.835108,211.180665 168.197114,211.012 167.36111,211.012 C166.950441,211.012 166.473779,211.063333 165.93111,211.166 C165.388441,211.268667 164.838446,211.415332 164.28111,211.606 L163.66511,209.868 C165.05845,209.339997 166.415103,209.076 167.73511,209.076 C169.275118,209.076 170.433773,209.41333 171.21111,210.088 C171.988447,210.76267 172.37711,211.723327 172.37711,212.97 L172.37711,218.162 C172.37711,218.602002 172.443109,218.928332 172.57511,219.141 Z M168.80211,219.086 C169.278779,218.821999 169.656442,218.455336 169.93511,217.986 L169.93511,215.412 L168.57111,215.412 C167.456438,215.412 166.642446,215.598998 166.12911,215.973 C165.615774,216.347002 165.35911,216.885996 165.35911,217.59 C165.35911,218.206003 165.524108,218.675332 165.85411,218.998 C166.184112,219.320668 166.671774,219.482 167.31711,219.482 C167.830446,219.482 168.325441,219.350001 168.80211,219.086 Z M183.340269,218.998 C183.787604,218.719332 184.011269,218.338002 184.011269,217.854 C184.011269,217.516665 183.945269,217.241668 183.813269,217.029 C183.681268,216.816332 183.417271,216.618334 183.021269,216.435 C182.625267,216.251666 182.031273,216.057334 181.239269,215.852 C179.963262,215.529332 179.006272,215.115003 178.368269,214.609 C177.730265,214.102997 177.411269,213.373338 177.411269,212.42 C177.411269,211.407995 177.829264,210.59767 178.665269,209.989 C179.501273,209.38033 180.630595,209.076 182.053269,209.076 C183.769277,209.076 185.243262,209.523329 186.475269,210.418 L185.419269,211.98 C184.37793,211.290663 183.277941,210.946 182.119269,210.946 C180.652595,210.946 179.919269,211.371329 179.919269,212.222 C179.919269,212.515335 180.003601,212.757332 180.172269,212.948 C180.340936,213.138668 180.6306,213.318332 181.041269,213.487 C181.451937,213.655668 182.060598,213.849999 182.867269,214.07 C184.128608,214.422002 185.070932,214.854664 185.694269,215.368 C186.317605,215.881336 186.629269,216.651328 186.629269,217.678 C186.629269,218.866006 186.13794,219.76433 185.155269,220.373 C184.172597,220.98167 182.955276,221.286 181.503269,221.286 C179.581926,221.286 177.990608,220.743339 176.729269,219.658 L178.027269,218.162 C178.511271,218.543335 179.050266,218.847666 179.644269,219.075 C180.238272,219.302334 180.857932,219.416 181.503269,219.416 C182.280606,219.416 182.892933,219.276668 183.340269,218.998 Z M197.130427,218.998 C197.577763,218.719332 197.801427,218.338002 197.801427,217.854 C197.801427,217.516665 197.735428,217.241668 197.603427,217.029 C197.471427,216.816332 197.207429,216.618334 196.811427,216.435 C196.415425,216.251666 195.821431,216.057334 195.029427,215.852 C193.753421,215.529332 192.79643,215.115003 192.158427,214.609 C191.520424,214.102997 191.201427,213.373338 191.201427,212.42 C191.201427,211.407995 191.619423,210.59767 192.455427,209.989 C193.291431,209.38033 194.420753,209.076 195.843427,209.076 C197.559436,209.076 199.033421,209.523329 200.265427,210.418 L199.209427,211.98 C198.168089,211.290663 197.0681,210.946 195.909427,210.946 C194.442753,210.946 193.709427,211.371329 193.709427,212.222 C193.709427,212.515335 193.79376,212.757332 193.962427,212.948 C194.131095,213.138668 194.420759,213.318332 194.831427,213.487 C195.242096,213.655668 195.850757,213.849999 196.657427,214.07 C197.918767,214.422002 198.861091,214.854664 199.484427,215.368 C200.107764,215.881336 200.419427,216.651328 200.419427,217.678 C200.419427,218.866006 199.928099,219.76433 198.945427,220.373 C197.962756,220.98167 196.745434,221.286 195.293427,221.286 C193.372084,221.286 191.780767,220.743339 190.519427,219.658 L191.817427,218.162 C192.30143,218.543335 192.840424,218.847666 193.434427,219.075 C194.02843,219.302334 194.648091,219.416 195.293427,219.416 C196.070764,219.416 196.683092,219.276668 197.130427,218.998 Z M214.055586,212.992 L204.947586,212.992 L204.947586,210.968 L214.055586,210.968 L214.055586,212.992 Z M214.055586,217.326 L204.947586,217.326 L204.947586,215.324 L214.055586,215.324 L214.055586,217.326 Z M222.004744,210.253 C221.645409,210.597668 221.216414,210.77 220.717744,210.77 C220.204408,210.77 219.775413,210.597668 219.430744,210.253 C219.086076,209.908332 218.913744,209.494002 218.913744,209.01 C218.913744,208.775332 218.950411,208.522335 219.023744,208.251 C219.097078,207.979665 219.229077,207.646002 219.419744,207.25 L221.113744,203.642 L222.763744,203.642 L221.861744,207.624 C222.316413,207.961335 222.543744,208.42333 222.543744,209.01 C222.543744,209.494002 222.36408,209.908332 222.004744,210.253 Z M226.910744,210.253 C226.551409,210.597668 226.122414,210.77 225.623744,210.77 C225.110408,210.77 224.681413,210.597668 224.336744,210.253 C223.992076,209.908332 223.819744,209.494002 223.819744,209.01 C223.819744,208.760665 223.852744,208.504001 223.918744,208.24 C223.984745,207.975999 224.113077,207.646002 224.303744,207.25 L226.019744,203.642 L227.669744,203.642 L226.745744,207.624 C227.21508,207.976002 227.449744,208.437997 227.449744,209.01 C227.449744,209.494002 227.27008,209.908332 226.910744,210.253 Z M240.909903,218.272 L242.031903,219.856 C241.518567,220.296002 240.902573,220.644332 240.183903,220.901 C239.465233,221.157668 238.724573,221.286 237.961903,221.286 C236.187227,221.286 234.801241,220.739672 233.803903,219.647 C232.806565,218.554328 232.307903,217.091342 232.307903,215.258 C232.307903,214.069994 232.535234,213.010338 232.989903,212.079 C233.444572,211.147662 234.100899,210.414336 234.958903,209.879 C235.816907,209.343664 236.832564,209.076 238.005903,209.076 C239.545911,209.076 240.887897,209.545329 242.031903,210.484 L240.887903,212.024 C239.949232,211.378663 239.003241,211.056 238.049903,211.056 C237.081898,211.056 236.319239,211.40433 235.761903,212.101 C235.204567,212.79767 234.925903,213.849993 234.925903,215.258 C234.925903,216.636674 235.204567,217.648663 235.761903,218.294 C236.319239,218.939337 237.081898,219.262 238.049903,219.262 C238.973908,219.262 239.927231,218.932003 240.909903,218.272 Z M254.766062,210.715 C255.675399,211.807672 256.130062,213.292657 256.130062,215.17 C256.130062,217.047343 255.668066,218.535994 254.744062,219.636 C253.820057,220.736006 252.529403,221.286 250.872062,221.286 C249.200053,221.286 247.905733,220.747005 246.989062,219.669 C246.07239,218.590995 245.614062,217.098676 245.614062,215.192 C245.614062,213.343991 246.079724,211.862672 247.011062,210.748 C247.9424,209.633328 249.23672,209.076 250.894062,209.076 C252.56607,209.076 253.856724,209.622328 254.766062,210.715 Z M248.881062,212.024 C248.433726,212.713337 248.210062,213.769326 248.210062,215.192 C248.210062,216.629341 248.430059,217.688997 248.870062,218.371 C249.310064,219.053003 249.97739,219.394 250.872062,219.394 C251.766733,219.394 252.434059,219.049337 252.874062,218.36 C253.314064,217.670663 253.534062,216.607341 253.534062,215.17 C253.534062,213.747326 253.314064,212.695003 252.874062,212.013 C252.434059,211.330997 251.774066,210.99 250.894062,210.99 C249.99939,210.99 249.328397,211.334663 248.881062,212.024 Z M260.02022,209.384 L262.15422,209.384 L262.33022,210.902 C262.814223,210.31533 263.38255,209.864335 264.03522,209.549 C264.68789,209.233665 265.37355,209.076 266.09222,209.076 C267.162892,209.076 267.969551,209.376664 268.51222,209.978 C269.05489,210.579336 269.32622,211.429994 269.32622,212.53 L269.32622,221 L266.86222,221 L266.86222,213.762 C266.86222,213.04333 266.821887,212.489669 266.74122,212.101 C266.660553,211.712331 266.502888,211.426334 266.26822,211.243 C266.033552,211.059666 265.681556,210.968 265.21222,210.968 C264.684218,210.968 264.181889,211.129332 263.70522,211.452 C263.228551,211.774668 262.821555,212.177998 262.48422,212.662 L262.48422,221 L260.02022,221 L260.02022,209.384 Z M281.972379,221.044 C281.385709,221.205334 280.769715,221.286 280.124379,221.286 C278.804372,221.286 277.785049,220.945003 277.066379,220.263 C276.347708,219.580997 275.988379,218.653339 275.988379,217.48 L275.988379,211.188 L273.414379,211.188 L273.414379,209.384 L275.988379,209.384 L275.988379,206.788 L278.452379,206.502 L278.452379,209.384 L282.390379,209.384 L282.104379,211.188 L278.452379,211.188 L278.452379,217.458 C278.452379,218.08867 278.61371,218.554332 278.936379,218.855 C279.259047,219.155668 279.772375,219.306 280.476379,219.306 C281.253716,219.306 281.972375,219.122668 282.632379,218.756 L283.512379,220.384 C283.072377,220.662668 282.559048,220.882666 281.972379,221.044 Z M290.625537,218.525 C291.204874,219.089669 291.934533,219.372 292.814537,219.372 C293.357207,219.372 293.874202,219.287668 294.365537,219.119 C294.856873,218.950332 295.359201,218.697335 295.872537,218.36 L296.928537,219.856 C296.385868,220.310669 295.747874,220.662665 295.014537,220.912 C294.2812,221.161335 293.511208,221.286 292.704537,221.286 C290.929862,221.286 289.551209,220.732339 288.568537,219.625 C287.585866,218.517661 287.094537,217.040009 287.094537,215.192 C287.094537,214.033328 287.307202,212.988338 287.732537,212.057 C288.157873,211.125662 288.773867,210.396003 289.580537,209.868 C290.387208,209.339997 291.325865,209.076 292.396537,209.076 C293.936545,209.076 295.157533,209.592995 296.059537,210.627 C296.961542,211.661005 297.412537,213.079991 297.412537,214.884 C297.412537,215.324002 297.390538,215.690665 297.346537,215.984 L289.646537,215.984 C289.719871,217.113339 290.046201,217.960331 290.625537,218.525 Z M290.482537,211.76 C289.983868,212.332003 289.697871,213.182661 289.624537,214.312 L295.014537,214.312 C294.985204,213.211995 294.75054,212.36867 294.310537,211.782 C293.870535,211.19533 293.239875,210.902 292.418537,210.902 C291.626533,210.902 290.981206,211.187997 290.482537,211.76 Z M301.390696,209.384 L303.524696,209.384 L303.700696,210.902 C304.184698,210.31533 304.753026,209.864335 305.405696,209.549 C306.058366,209.233665 306.744026,209.076 307.462696,209.076 C308.533368,209.076 309.340027,209.376664 309.882696,209.978 C310.425365,210.579336 310.696696,211.429994 310.696696,212.53 L310.696696,221 L308.232696,221 L308.232696,213.762 C308.232696,213.04333 308.192363,212.489669 308.111696,212.101 C308.031029,211.712331 307.873364,211.426334 307.638696,211.243 C307.404028,211.059666 307.052032,210.968 306.582696,210.968 C306.054693,210.968 305.552365,211.129332 305.075696,211.452 C304.599027,211.774668 304.192031,212.177998 303.854696,212.662 L303.854696,221 L301.390696,221 L301.390696,209.384 Z M323.342854,221.044 C322.756185,221.205334 322.140191,221.286 321.494854,221.286 C320.174848,221.286 319.155525,220.945003 318.436854,220.263 C317.718184,219.580997 317.358854,218.653339 317.358854,217.48 L317.358854,211.188 L314.784854,211.188 L314.784854,209.384 L317.358854,209.384 L317.358854,206.788 L319.822854,206.502 L319.822854,209.384 L323.760854,209.384 L323.474854,211.188 L319.822854,211.188 L319.822854,217.458 C319.822854,218.08867 319.984186,218.554332 320.306854,218.855 C320.629523,219.155668 321.142851,219.306 321.846854,219.306 C322.624192,219.306 323.342851,219.122668 324.002854,218.756 L324.882854,220.384 C324.442852,220.662668 323.929524,220.882666 323.342854,221.044 Z M329.994013,204.104 C330.353348,203.766665 330.782344,203.598 331.281013,203.598 C331.794349,203.598 332.223345,203.762998 332.568013,204.093 C332.912681,204.423002 333.085013,204.837331 333.085013,205.336 C333.085013,205.585335 333.048347,205.834665 332.975013,206.084 C332.901679,206.333335 332.762347,206.677998 332.557013,207.118 L330.863013,210.704 L329.213013,210.704 L330.115013,206.722 C329.675011,206.384665 329.455013,205.92267 329.455013,205.336 C329.455013,204.851998 329.634678,204.441335 329.994013,204.104 Z M334.878013,204.104 C335.237348,203.766665 335.666344,203.598 336.165013,203.598 C336.678349,203.598 337.111011,203.762998 337.463013,204.093 C337.815015,204.423002 337.991013,204.837331 337.991013,205.336 C337.991013,205.600001 337.954347,205.856665 337.881013,206.106 C337.807679,206.355335 337.668347,206.692665 337.463013,207.118 L335.747013,210.704 L334.119013,210.704 L335.043013,206.722 C334.573677,206.369998 334.339013,205.908003 334.339013,205.336 C334.339013,204.851998 334.518678,204.441335 334.878013,204.104 Z M352.243172,213.036 L352.243172,215.17 L343.795172,220.428 L342.585172,218.668 L350.109172,214.114 L342.585172,209.604 L343.729172,207.778 L352.243172,213.036 Z M104.44,240.56 L96.894,245.114 L104.44,249.646 L103.23,251.428 L94.782,246.17 L94.782,244.036 L103.296,238.778 L104.44,240.56 Z M111.212159,241.814 C111.681494,241.241997 112.227822,240.809335 112.851159,240.516 C113.474495,240.222665 114.130822,240.076 114.820159,240.076 C115.890831,240.076 116.697489,240.372997 117.240159,240.967 C117.782828,241.561003 118.054159,242.415328 118.054159,243.53 L118.054159,252 L115.590159,252 L115.590159,243.904 C115.590159,243.214663 115.45816,242.719668 115.194159,242.419 C114.930157,242.118332 114.504828,241.968 113.918159,241.968 C113.404823,241.968 112.909828,242.132998 112.433159,242.463 C111.95649,242.793002 111.549494,243.199998 111.212159,243.684 L111.212159,252 L108.748159,252 L108.748159,235.742 L111.212159,235.478 L111.212159,241.814 Z M129.149317,237.084 C129.875321,237.465335 130.428982,237.978663 130.810317,238.624 C131.191652,239.269337 131.382317,239.995329 131.382317,240.802 C131.382317,241.696671 131.176986,242.565662 130.766317,243.409 C130.355648,244.252338 129.688322,245.183662 128.764317,246.203 C127.840313,247.222338 126.534992,248.494659 124.848317,250.02 L131.734317,250.02 L131.470317,252 L122.032317,252 L122.032317,250.13 C123.938993,248.296657 125.361646,246.863005 126.300317,245.829 C127.238989,244.794995 127.898982,243.911337 128.280317,243.178 C128.661652,242.444663 128.852317,241.704004 128.852317,240.956 C128.852317,240.19333 128.632319,239.592002 128.192317,239.152 C127.752315,238.711998 127.150988,238.492 126.388317,238.492 C125.728314,238.492 125.167319,238.612999 124.705317,238.855 C124.243315,239.097001 123.777653,239.503997 123.308317,240.076 L121.724317,238.844 C122.325654,238.066663 123.01498,237.483669 123.792317,237.095 C124.569654,236.706331 125.493645,236.512 126.564317,236.512 C127.561655,236.512 128.423314,236.702665 129.149317,237.084 Z M145.810476,244.036 L145.810476,246.17 L137.362476,251.428 L136.152476,249.668 L143.676476,245.114 L136.152476,240.604 L137.296476,238.778 L145.810476,244.036 Z M159.545634,250.108 C159.083632,250.797337 158.416305,251.332665 157.543634,251.714 C156.670963,252.095335 155.633307,252.286 154.430634,252.286 C152.083956,252.286 150.221308,251.61134 148.842634,250.262 L150.250634,248.7 C151.39464,249.756005 152.787959,250.284 154.430634,250.284 C155.339972,250.284 156.091631,250.071335 156.685634,249.646 C157.279637,249.220665 157.576634,248.619337 157.576634,247.842 C157.576634,247.387331 157.484969,247.006002 157.301634,246.698 C157.1183,246.389998 156.806637,246.115001 156.366634,245.873 C155.926632,245.630999 155.295972,245.385335 154.474634,245.136 C152.787959,244.637331 151.548638,244.043337 150.756634,243.354 C149.96463,242.664663 149.568634,241.755339 149.568634,240.626 C149.568634,239.819329 149.792299,239.104336 150.239634,238.481 C150.68697,237.857664 151.30663,237.373668 152.098634,237.029 C152.890638,236.684332 153.785296,236.512 154.782634,236.512 C156.821311,236.512 158.515294,237.120661 159.864634,238.338 L158.522634,239.856 C157.481296,238.961329 156.285974,238.514 154.936634,238.514 C154.115297,238.514 153.451637,238.682665 152.945634,239.02 C152.439632,239.357335 152.186634,239.84133 152.186634,240.472 C152.186634,240.868002 152.292967,241.205332 152.505634,241.484 C152.718302,241.762668 153.077632,242.015666 153.583634,242.243 C154.089637,242.470334 154.80463,242.723332 155.728634,243.002 C157.195308,243.442002 158.31363,244.006663 159.083634,244.696 C159.853638,245.385337 160.238634,246.389993 160.238634,247.71 C160.238634,248.619338 160.007637,249.418663 159.545634,250.108 Z M166.372793,248.502 C166.372793,249.17667 166.508458,249.664332 166.779793,249.965 C167.051128,250.265668 167.465457,250.416 168.022793,250.416 C168.550796,250.416 169.060457,250.262002 169.551793,249.954 C170.043129,249.645998 170.435458,249.257336 170.728793,248.788 L170.728793,240.384 L173.192793,240.384 L173.192793,252 L171.058793,252 L170.904793,250.504 C170.494124,251.076003 169.958796,251.515998 169.298793,251.824 C168.63879,252.132002 167.956796,252.286 167.252793,252.286 C166.138121,252.286 165.302129,251.985336 164.744793,251.384 C164.187457,250.782664 163.908793,249.924672 163.908793,248.81 L163.908793,240.384 L166.372793,240.384 L166.372793,248.502 Z M181.581951,240.516 C182.131954,240.222665 182.722282,240.076 183.352951,240.076 C184.834292,240.076 185.926948,240.611328 186.630951,241.682 C187.334955,242.752672 187.686951,244.248657 187.686951,246.17 C187.686951,247.988676 187.279956,249.462661 186.465951,250.592 C185.651947,251.721339 184.511625,252.286 183.044951,252.286 C181.754278,252.286 180.742288,251.809338 180.008951,250.856 L179.876951,252 L177.698951,252 L177.698951,235.72 L180.162951,235.434 L180.162951,241.77 C180.558953,241.227331 181.031949,240.809335 181.581951,240.516 Z M184.397951,249.371 C184.845287,248.67433 185.068951,247.614674 185.068951,246.192 C185.068951,244.725326 184.867287,243.65467 184.463951,242.98 C184.060616,242.30533 183.462955,241.968 182.670951,241.968 C182.172282,241.968 181.70662,242.121998 181.273951,242.43 C180.841283,242.738002 180.470953,243.141331 180.162951,243.64 L180.162951,249.074 C180.749621,249.968671 181.51228,250.416 182.450951,250.416 C183.301622,250.416 183.950616,250.06767 184.397951,249.371 Z M193.95311,241.814 C194.422446,241.241997 194.968774,240.809335 195.59211,240.516 C196.215447,240.222665 196.871773,240.076 197.56111,240.076 C198.631782,240.076 199.438441,240.372997 199.98111,240.967 C200.523779,241.561003 200.79511,242.415328 200.79511,243.53 L200.79511,252 L198.33111,252 L198.33111,243.904 C198.33111,243.214663 198.199111,242.719668 197.93511,242.419 C197.671109,242.118332 197.24578,241.968 196.65911,241.968 C196.145774,241.968 195.650779,242.132998 195.17411,242.463 C194.697441,242.793002 194.290445,243.199998 193.95311,243.684 L193.95311,252 L191.48911,252 L191.48911,235.742 L193.95311,235.478 L193.95311,241.814 Z M208.304269,249.525 C208.883605,250.089669 209.613264,250.372 210.493269,250.372 C211.035938,250.372 211.552933,250.287668 212.044269,250.119 C212.535604,249.950332 213.037933,249.697335 213.551269,249.36 L214.607269,250.856 C214.064599,251.310669 213.426606,251.662665 212.693269,251.912 C211.959932,252.161335 211.189939,252.286 210.383269,252.286 C208.608593,252.286 207.22994,251.732339 206.247269,250.625 C205.264597,249.517661 204.773269,248.040009 204.773269,246.192 C204.773269,245.033328 204.985933,243.988338 205.411269,243.057 C205.836604,242.125662 206.452598,241.396003 207.259269,240.868 C208.065939,240.339997 209.004597,240.076 210.075269,240.076 C211.615276,240.076 212.836264,240.592995 213.738269,241.627 C214.640273,242.661005 215.091269,244.079991 215.091269,245.884 C215.091269,246.324002 215.069269,246.690665 215.025269,246.984 L207.325269,246.984 C207.398602,248.113339 207.724932,248.960331 208.304269,249.525 Z M208.161269,242.76 C207.662599,243.332003 207.376602,244.182661 207.303269,245.312 L212.693269,245.312 C212.663935,244.211995 212.429271,243.36867 211.989269,242.782 C211.549266,242.19533 210.918606,241.902 210.097269,241.902 C209.305265,241.902 208.659938,242.187997 208.161269,242.76 Z M228.155427,250.141 C228.287428,250.353668 228.514759,250.511333 228.837427,250.614 L228.265427,252.286 C227.048088,252.139333 226.248762,251.604005 225.867427,250.68 C225.442092,251.208003 224.91043,251.607665 224.272427,251.879 C223.634424,252.150335 222.934098,252.286 222.171427,252.286 C220.998088,252.286 220.066764,251.956003 219.377427,251.296 C218.68809,250.635997 218.343427,249.763339 218.343427,248.678 C218.343427,247.460661 218.823756,246.522003 219.784427,245.862 C220.745099,245.201997 222.105418,244.872 223.865427,244.872 L225.515427,244.872 L225.515427,244.124 C225.515427,243.390663 225.295429,242.855335 224.855427,242.518 C224.415425,242.180665 223.777431,242.012 222.941427,242.012 C222.530759,242.012 222.054097,242.063333 221.511427,242.166 C220.968758,242.268667 220.418763,242.415332 219.861427,242.606 L219.245427,240.868 C220.638768,240.339997 221.995421,240.076 223.315427,240.076 C224.855435,240.076 226.01409,240.41333 226.791427,241.088 C227.568764,241.76267 227.957427,242.723327 227.957427,243.97 L227.957427,249.162 C227.957427,249.602002 228.023427,249.928332 228.155427,250.141 Z M224.382427,250.086 C224.859096,249.821999 225.236759,249.455336 225.515427,248.986 L225.515427,246.412 L224.151427,246.412 C223.036755,246.412 222.222763,246.598998 221.709427,246.973 C221.196091,247.347002 220.939427,247.885996 220.939427,248.59 C220.939427,249.206003 221.104426,249.675332 221.434427,249.998 C221.764429,250.320668 222.252091,250.482 222.897427,250.482 C223.410763,250.482 223.905758,250.350001 224.382427,250.086 Z M242.143586,235.72 L242.143586,252 L239.965586,252 L239.789586,250.57 C239.408251,251.127336 238.938922,251.552665 238.381586,251.846 C237.82425,252.139335 237.208256,252.286 236.533586,252.286 C235.081579,252.286 233.988923,251.743339 233.255586,250.658 C232.522249,249.572661 232.155586,248.084009 232.155586,246.192 C232.155586,245.003994 232.342584,243.948005 232.716586,243.024 C233.090588,242.099995 233.622249,241.377669 234.311586,240.857 C235.000923,240.336331 235.814914,240.076 236.753586,240.076 C237.941592,240.076 238.916915,240.501329 239.679586,241.352 L239.679586,235.434 L242.143586,235.72 Z M235.444586,243.013 C234.99725,243.70967 234.773586,244.769326 234.773586,246.192 C234.773586,249.008014 235.580244,250.416 237.193586,250.416 C238.161591,250.416 238.990249,249.858672 239.679586,248.744 L239.679586,243.266 C239.078249,242.400662 238.31559,241.968 237.391586,241.968 C236.540915,241.968 235.891921,242.31633 235.444586,243.013 Z M252.446744,235.137 C252.747413,235.437668 252.897744,235.807998 252.897744,236.248 C252.897744,236.688002 252.747413,237.054665 252.446744,237.348 C252.146076,237.641335 251.76108,237.788 251.291744,237.788 C250.807742,237.788 250.419079,237.641335 250.125744,237.348 C249.83241,237.054665 249.685744,236.688002 249.685744,236.248 C249.685744,235.793331 249.836076,235.419335 250.136744,235.126 C250.437413,234.832665 250.822409,234.686 251.291744,234.686 C251.76108,234.686 252.146076,234.836332 252.446744,235.137 Z M252.985744,250.196 L256.153744,250.196 L256.153744,252 L247.067744,252 L247.067744,250.196 L250.521744,250.196 L250.521744,242.188 L247.177744,242.188 L247.177744,240.384 L252.985744,240.384 L252.985744,250.196 Z M260.439903,240.384 L262.573903,240.384 L262.749903,241.902 C263.233905,241.31533 263.802233,240.864335 264.454903,240.549 C265.107573,240.233665 265.793233,240.076 266.511903,240.076 C267.582575,240.076 268.389234,240.376664 268.931903,240.978 C269.474572,241.579336 269.745903,242.429994 269.745903,243.53 L269.745903,252 L267.281903,252 L267.281903,244.762 C267.281903,244.04333 267.24157,243.489669 267.160903,243.101 C267.080236,242.712331 266.922571,242.426334 266.687903,242.243 C266.453235,242.059666 266.101239,241.968 265.631903,241.968 C265.1039,241.968 264.601572,242.129332 264.124903,242.452 C263.648234,242.774668 263.241238,243.177998 262.903903,243.662 L262.903903,252 L260.439903,252 L260.439903,240.384 Z M284.658062,240.956 C284.232726,241.102667 283.752398,241.201666 283.217062,241.253 C282.681726,241.304334 282.040065,241.33 281.292062,241.33 C281.996065,241.652668 282.52406,242.055998 282.876062,242.54 C283.228063,243.024002 283.404062,243.610663 283.404062,244.3 C283.404062,245.06267 283.217063,245.73733 282.843062,246.324 C282.46906,246.91067 281.937398,247.372665 281.248062,247.71 C280.558725,248.047335 279.744733,248.216 278.806062,248.216 C278.146058,248.216 277.618064,248.150001 277.222062,248.018 C277.060727,248.135334 276.936062,248.278332 276.848062,248.447 C276.760061,248.615668 276.716062,248.795332 276.716062,248.986 C276.716062,249.57267 277.192723,249.866 278.146062,249.866 L280.170062,249.866 C280.991399,249.866 281.724725,250.005332 282.370062,250.284 C283.015398,250.562668 283.517726,250.947664 283.877062,251.439 C284.236397,251.930336 284.416062,252.483997 284.416062,253.1 C284.416062,254.258672 283.9174,255.156997 282.920062,255.795 C281.922723,256.433003 280.485404,256.752 278.608062,256.752 C277.302722,256.752 276.272399,256.616335 275.517062,256.345 C274.761724,256.073665 274.226396,255.677669 273.911062,255.157 C273.595727,254.636331 273.438062,253.965337 273.438062,253.144 L275.638062,253.144 C275.638062,253.584002 275.722394,253.932332 275.891062,254.189 C276.059729,254.445668 276.356726,254.636333 276.782062,254.761 C277.207397,254.885667 277.823391,254.948 278.630062,254.948 C279.803401,254.948 280.646726,254.805001 281.160062,254.519 C281.673397,254.232999 281.930062,253.811336 281.930062,253.254 C281.930062,252.784664 281.728397,252.421668 281.325062,252.165 C280.921726,251.908332 280.375398,251.78 279.686062,251.78 L277.684062,251.78 C276.642723,251.78 275.854398,251.567335 275.319062,251.142 C274.783726,250.716665 274.516062,250.181337 274.516062,249.536 C274.516062,249.139998 274.62606,248.758668 274.846062,248.392 C275.066063,248.025331 275.381393,247.710001 275.792062,247.446 C275.102725,247.079331 274.600396,246.635669 274.285062,246.115 C273.969727,245.594331 273.812062,244.95267 273.812062,244.19 C273.812062,243.383329 274.017393,242.668336 274.428062,242.045 C274.83873,241.421664 275.410725,240.937668 276.144062,240.593 C276.877399,240.248332 277.71339,240.076 278.652062,240.076 C279.913401,240.090667 280.914391,240.002668 281.655062,239.812 C282.395732,239.621332 283.184057,239.320669 284.020062,238.91 L284.658062,240.956 Z M276.914062,242.441 C276.51806,242.873669 276.320062,243.456663 276.320062,244.19 C276.320062,244.938004 276.521726,245.528331 276.925062,245.961 C277.328397,246.393669 277.918724,246.61 278.696062,246.61 C279.429399,246.61 279.986726,246.397335 280.368062,245.972 C280.749397,245.546665 280.940062,244.938004 280.940062,244.146 C280.940062,242.576659 280.184736,241.792 278.674062,241.792 C277.896724,241.792 277.310064,242.008331 276.914062,242.441 Z M307.706379,252 L305.154379,252 L305.154379,238.888 L300.578379,238.888 L300.578379,236.82 L312.348379,236.82 L312.084379,238.888 L307.706379,238.888 L307.706379,252 Z M318.625537,249.525 C319.204874,250.089669 319.934533,250.372 320.814537,250.372 C321.357207,250.372 321.874202,250.287668 322.365537,250.119 C322.856873,249.950332 323.359201,249.697335 323.872537,249.36 L324.928537,250.856 C324.385868,251.310669 323.747874,251.662665 323.014537,251.912 C322.2812,252.161335 321.511208,252.286 320.704537,252.286 C318.929862,252.286 317.551209,251.732339 316.568537,250.625 C315.585866,249.517661 315.094537,248.040009 315.094537,246.192 C315.094537,245.033328 315.307202,243.988338 315.732537,243.057 C316.157873,242.125662 316.773867,241.396003 317.580537,240.868 C318.387208,240.339997 319.325865,240.076 320.396537,240.076 C321.936545,240.076 323.157533,240.592995 324.059537,241.627 C324.961542,242.661005 325.412537,244.079991 325.412537,245.884 C325.412537,246.324002 325.390538,246.690665 325.346537,246.984 L317.646537,246.984 C317.719871,248.113339 318.046201,248.960331 318.625537,249.525 Z M318.482537,242.76 C317.983868,243.332003 317.697871,244.182661 317.624537,245.312 L323.014537,245.312 C322.985204,244.211995 322.75054,243.36867 322.310537,242.782 C321.870535,242.19533 321.239875,241.902 320.418537,241.902 C319.626533,241.902 318.981206,242.187997 318.482537,242.76 Z M328.378696,252 L332.558696,245.884 L328.840696,240.384 L331.678696,240.384 L334.054696,244.476 L336.430696,240.384 L339.136696,240.384 L335.506696,245.774 L339.686696,252 L336.804696,252 L333.944696,247.248 L331.106696,252 L328.378696,252 Z M351.342854,252.044 C350.756185,252.205334 350.140191,252.286 349.494854,252.286 C348.174848,252.286 347.155525,251.945003 346.436854,251.263 C345.718184,250.580997 345.358854,249.653339 345.358854,248.48 L345.358854,242.188 L342.784854,242.188 L342.784854,240.384 L345.358854,240.384 L345.358854,237.788 L347.822854,237.502 L347.822854,240.384 L351.760854,240.384 L351.474854,242.188 L347.822854,242.188 L347.822854,248.458 C347.822854,249.08867 347.984186,249.554332 348.306854,249.855 C348.629523,250.155668 349.142851,250.306 349.846854,250.306 C350.624192,250.306 351.342851,250.122668 352.002854,249.756 L352.882854,251.384 C352.442852,251.662668 351.929524,251.882666 351.342854,252.044 Z M378.835172,235.038 L368.957172,255.476 L366.999172,254.596 L367.901172,252.704 L357.385172,246.17 L357.385172,244.036 L365.899172,238.778 L367.043172,240.56 L359.497172,245.114 L368.847172,250.768 L376.899172,234.136 L378.835172,235.038 Z M387.01533,241.814 C387.484666,241.241997 388.030994,240.809335 388.65433,240.516 C389.277667,240.222665 389.933993,240.076 390.62333,240.076 C391.694002,240.076 392.500661,240.372997 393.04333,240.967 C393.586,241.561003 393.85733,242.415328 393.85733,243.53 L393.85733,252 L391.39333,252 L391.39333,243.904 C391.39333,243.214663 391.261332,242.719668 390.99733,242.419 C390.733329,242.118332 390.308,241.968 389.72133,241.968 C389.207994,241.968 388.712999,242.132998 388.23633,242.463 C387.759661,242.793002 387.352665,243.199998 387.01533,243.684 L387.01533,252 L384.55133,252 L384.55133,235.742 L387.01533,235.478 L387.01533,241.814 Z M404.952489,237.084 C405.678492,237.465335 406.232154,237.978663 406.613489,238.624 C406.994824,239.269337 407.185489,239.995329 407.185489,240.802 C407.185489,241.696671 406.980158,242.565662 406.569489,243.409 C406.15882,244.252338 405.491493,245.183662 404.567489,246.203 C403.643484,247.222338 402.338164,248.494659 400.651489,250.02 L407.537489,250.02 L407.273489,252 L397.835489,252 L397.835489,250.13 C399.742165,248.296657 401.164817,246.863005 402.103489,245.829 C403.04216,244.794995 403.702154,243.911337 404.083489,243.178 C404.464824,242.444663 404.655489,241.704004 404.655489,240.956 C404.655489,240.19333 404.435491,239.592002 403.995489,239.152 C403.555487,238.711998 402.954159,238.492 402.191489,238.492 C401.531485,238.492 400.970491,238.612999 400.508489,238.855 C400.046486,239.097001 399.580824,239.503997 399.111489,240.076 L397.527489,238.844 C398.128825,238.066663 398.818152,237.483669 399.595489,237.095 C400.372826,236.706331 401.296817,236.512 402.367489,236.512 C403.364827,236.512 404.226485,236.702665 404.952489,237.084 Z M421.613647,244.036 L421.613647,246.17 L413.165647,251.428 L411.955647,249.668 L419.479647,245.114 L411.955647,240.604 L413.099647,238.778 L421.613647,244.036 Z M88.8221586,266.038 L78.9441586,286.476 L76.9861586,285.596 L77.8881586,283.704 L67.3721586,277.17 L67.3721586,275.036 L75.8861586,269.778 L77.0301586,271.56 L69.4841586,276.114 L78.8341586,281.768 L86.8861586,265.136 L88.8221586,266.038 Z M103.822317,266.72 L103.822317,283 L101.644317,283 L101.468317,281.57 C101.086982,282.127336 100.617653,282.552665 100.060317,282.846 C99.502981,283.139335 98.8869872,283.286 98.2123172,283.286 C96.7603099,283.286 95.6676542,282.743339 94.9343172,281.658 C94.2009802,280.572661 93.8343172,279.084009 93.8343172,277.192 C93.8343172,276.003994 94.0213153,274.948005 94.3953172,274.024 C94.769319,273.099995 95.3009804,272.377669 95.9903172,271.857 C96.6796539,271.336331 97.4936458,271.076 98.4323172,271.076 C99.6203231,271.076 100.595647,271.501329 101.358317,272.352 L101.358317,266.434 L103.822317,266.72 Z M97.1233172,274.013 C96.6759816,274.70967 96.4523172,275.769326 96.4523172,277.192 C96.4523172,280.008014 97.2589758,281.416 98.8723172,281.416 C99.840322,281.416 100.66898,280.858672 101.358317,279.744 L101.358317,274.266 C100.756981,273.400662 99.9943218,272.968 99.0703172,272.968 C98.2196462,272.968 97.5706527,273.31633 97.1233172,274.013 Z M114.125476,266.137 C114.426144,266.437668 114.576476,266.807998 114.576476,267.248 C114.576476,267.688002 114.426144,268.054665 114.125476,268.348 C113.824808,268.641335 113.439811,268.788 112.970476,268.788 C112.486473,268.788 112.097811,268.641335 111.804476,268.348 C111.511141,268.054665 111.364476,267.688002 111.364476,267.248 C111.364476,266.793331 111.514808,266.419335 111.815476,266.126 C112.116144,265.832665 112.50114,265.686 112.970476,265.686 C113.439811,265.686 113.824808,265.836332 114.125476,266.137 Z M114.664476,281.196 L117.832476,281.196 L117.832476,283 L108.746476,283 L108.746476,281.196 L112.200476,281.196 L112.200476,273.188 L108.856476,273.188 L108.856476,271.384 L114.664476,271.384 L114.664476,281.196 Z M128.190634,283 L125.330634,283 L121.216634,271.384 L123.878634,271.384 L126.804634,280.954 L129.774634,271.384 L132.304634,271.384 L128.190634,283 Z M145.390793,275.036 L145.390793,277.17 L136.942793,282.428 L135.732793,280.668 L143.256793,276.114 L135.732793,271.604 L136.876793,269.778 L145.390793,275.036 Z M60.8221586,297.038 L50.9441586,317.476 L48.9861586,316.596 L49.8881586,314.704 L39.3721586,308.17 L39.3721586,306.036 L47.8861586,300.778 L49.0301586,302.56 L41.4841586,307.114 L50.8341586,312.768 L58.8861586,296.136 L60.8221586,297.038 Z M72.5993172,311.998 C73.0466527,311.719332 73.2703172,311.338002 73.2703172,310.854 C73.2703172,310.516665 73.2043178,310.241668 73.0723172,310.029 C72.9403165,309.816332 72.6763191,309.618334 72.2803172,309.435 C71.8843152,309.251666 71.2903211,309.057334 70.4983172,308.852 C69.2223108,308.529332 68.2653204,308.115003 67.6273172,307.609 C66.989314,307.102997 66.6703172,306.373338 66.6703172,305.42 C66.6703172,304.407995 67.088313,303.59767 67.9243172,302.989 C68.7603213,302.38033 69.8896434,302.076 71.3123172,302.076 C73.0283257,302.076 74.502311,302.523329 75.7343172,303.418 L74.6783172,304.98 C73.6369786,304.290663 72.5369896,303.946 71.3783172,303.946 C69.9116432,303.946 69.1783172,304.371329 69.1783172,305.222 C69.1783172,305.515335 69.2626497,305.757332 69.4313172,305.948 C69.5999847,306.138668 69.8896484,306.318332 70.3003172,306.487 C70.7109859,306.655668 71.3196465,306.849999 72.1263172,307.07 C73.3876568,307.422002 74.3299807,307.854664 74.9533172,308.368 C75.5766536,308.881336 75.8883172,309.651328 75.8883172,310.678 C75.8883172,311.866006 75.3969887,312.76433 74.4143172,313.373 C73.4316456,313.98167 72.2143244,314.286 70.7623172,314.286 C68.8409742,314.286 67.2496568,313.743339 65.9883172,312.658 L67.2863172,311.162 C67.7703196,311.543335 68.3093142,311.847666 68.9033172,312.075 C69.4973201,312.302334 70.1169806,312.416 70.7623172,312.416 C71.5396544,312.416 72.1519816,312.276668 72.5993172,311.998 Z M83.3534757,311.525 C83.932812,312.089669 84.6624713,312.372 85.5424757,312.372 C86.0851451,312.372 86.60214,312.287668 87.0934757,312.119 C87.5848115,311.950332 88.0871398,311.697335 88.6004757,311.36 L89.6564757,312.856 C89.1138064,313.310669 88.4758127,313.662665 87.7424757,313.912 C87.0091387,314.161335 86.2391464,314.286 85.4324757,314.286 C83.6578002,314.286 82.2791473,313.732339 81.2964757,312.625 C80.3138042,311.517661 79.8224757,310.040009 79.8224757,308.192 C79.8224757,307.033328 80.0351403,305.988338 80.4604757,305.057 C80.8858112,304.125662 81.501805,303.396003 82.3084757,302.868 C83.1151464,302.339997 84.0538037,302.076 85.1244757,302.076 C86.6644834,302.076 87.8854712,302.592995 88.7874757,303.627 C89.6894803,304.661005 90.1404757,306.079991 90.1404757,307.884 C90.1404757,308.324002 90.118476,308.690665 90.0744757,308.984 L82.3744757,308.984 C82.4478094,310.113339 82.7741395,310.960331 83.3534757,311.525 Z M83.2104757,304.76 C82.7118066,305.332003 82.4258094,306.182661 82.3524757,307.312 L87.7424757,307.312 C87.7131423,306.211994 87.4784779,305.36867 87.0384757,304.782 C86.5984735,304.19533 85.9678132,303.902 85.1464757,303.902 C84.3544718,303.902 83.7091449,304.187997 83.2104757,304.76 Z M102.588634,311.272 L103.710634,312.856 C103.197298,313.296002 102.581305,313.644332 101.862634,313.901 C101.143964,314.157668 100.403305,314.286 99.6406343,314.286 C97.8659588,314.286 96.4799726,313.739672 95.4826343,312.647 C94.485296,311.554328 93.9866343,310.091342 93.9866343,308.258 C93.9866343,307.069994 94.2139654,306.010338 94.6686343,305.079 C95.1233033,304.147662 95.77963,303.414336 96.6376343,302.879 C97.4956386,302.343664 98.5112951,302.076 99.6846343,302.076 C101.224642,302.076 102.566629,302.545329 103.710634,303.484 L102.566634,305.024 C101.627963,304.378663 100.681972,304.056 99.7286343,304.056 C98.7606295,304.056 97.9979704,304.40433 97.4406343,305.101 C96.8832982,305.79767 96.6046343,306.849993 96.6046343,308.258 C96.6046343,309.636674 96.8832982,310.648663 97.4406343,311.294 C97.9979704,311.939337 98.7606295,312.262 99.7286343,312.262 C100.652639,312.262 101.605963,311.932003 102.588634,311.272 Z M116.070793,314.044 C115.484123,314.205334 114.868129,314.286 114.222793,314.286 C112.902786,314.286 111.883463,313.945003 111.164793,313.263 C110.446123,312.580997 110.086793,311.653339 110.086793,310.48 L110.086793,304.188 L107.512793,304.188 L107.512793,302.384 L110.086793,302.384 L110.086793,299.788 L112.550793,299.502 L112.550793,302.384 L116.488793,302.384 L116.202793,304.188 L112.550793,304.188 L112.550793,310.458 C112.550793,311.08867 112.712125,311.554332 113.034793,311.855 C113.357461,312.155668 113.870789,312.306 114.574793,312.306 C115.35213,312.306 116.07079,312.122669 116.730793,311.756 L117.610793,313.384 C117.170791,313.662668 116.657463,313.882666 116.070793,314.044 Z M127.495951,297.137 C127.79662,297.437668 127.946951,297.807998 127.946951,298.248 C127.946951,298.688002 127.79662,299.054665 127.495951,299.348 C127.195283,299.641335 126.810287,299.788 126.340951,299.788 C125.856949,299.788 125.468286,299.641335 125.174951,299.348 C124.881617,299.054665 124.734951,298.688002 124.734951,298.248 C124.734951,297.793331 124.885283,297.419335 125.185951,297.126 C125.48662,296.832665 125.871616,296.686 126.340951,296.686 C126.810287,296.686 127.195283,296.836332 127.495951,297.137 Z M128.034951,312.196 L131.202951,312.196 L131.202951,314 L122.116951,314 L122.116951,312.196 L125.570951,312.196 L125.570951,304.188 L122.226951,304.188 L122.226951,302.384 L128.034951,302.384 L128.034951,312.196 Z M144.02511,303.715 C144.934448,304.807672 145.38911,306.292657 145.38911,308.17 C145.38911,310.047343 144.927115,311.535995 144.00311,312.636 C143.079105,313.736006 141.788452,314.286 140.13111,314.286 C138.459102,314.286 137.164781,313.747005 136.24811,312.669 C135.331439,311.590995 134.87311,310.098676 134.87311,308.192 C134.87311,306.343991 135.338772,304.862672 136.27011,303.748 C137.201448,302.633328 138.495768,302.076 140.15311,302.076 C141.825118,302.076 143.115772,302.622328 144.02511,303.715 Z M138.14011,305.024 C137.692775,305.713337 137.46911,306.769326 137.46911,308.192 C137.46911,309.629341 137.689108,310.688997 138.12911,311.371 C138.569112,312.053003 139.236439,312.394 140.13111,312.394 C141.025781,312.394 141.693108,312.049337 142.13311,311.36 C142.573112,310.670663 142.79311,309.607341 142.79311,308.17 C142.79311,306.747326 142.573112,305.695003 142.13311,305.013 C141.693108,304.330997 141.033114,303.99 140.15311,303.99 C139.258439,303.99 138.587446,304.334663 138.14011,305.024 Z M149.279269,302.384 L151.413269,302.384 L151.589269,303.902 C152.073271,303.31533 152.641599,302.864335 153.294269,302.549 C153.946939,302.233665 154.632598,302.076 155.351269,302.076 C156.421941,302.076 157.228599,302.376664 157.771269,302.978 C158.313938,303.579336 158.585269,304.429995 158.585269,305.53 L158.585269,314 L156.121269,314 L156.121269,306.762 C156.121269,306.04333 156.080936,305.489669 156.000269,305.101 C155.919602,304.712331 155.761936,304.426334 155.527269,304.243 C155.292601,304.059666 154.940604,303.968 154.471269,303.968 C153.943266,303.968 153.440938,304.129332 152.964269,304.452 C152.4876,304.774668 152.080604,305.177998 151.743269,305.662 L151.743269,314 L149.279269,314 L149.279269,302.384 Z M172.551427,306.036 L172.551427,308.17 L164.103427,313.428 L162.893427,311.668 L170.417427,307.114 L162.893427,302.604 L164.037427,300.778 L172.551427,306.036 Z" id="&lt;section&gt;-&lt;header-cl" fill="#A4A4A4"></path>
                </g>
            </g>
        </g>
    </g>
</svg>