<?xml version="1.0" encoding="UTF-8"?>
<svg width="585px" height="540px" viewBox="0 0 585 540" version="1.1" xmlns="http://www.w3.org/2000/svg" xmlns:xlink="http://www.w3.org/1999/xlink">
    <!-- Generator: Sketch 47 (45396) - http://www.bohemiancoding.com/sketch -->
    <title>Group 2</title>
    <desc>Created with Sketch.</desc>
    <defs>
        <path d="M226.032967,342.482214 L92.6970262,209.146273 C88.0107347,204.459981 80.4127549,204.459981 75.7264634,209.146273 L29.4852814,255.387455 C24.7989899,260.073746 24.7989899,267.671726 29.4852814,272.358018 L216.737279,459.610015 C219.286657,462.159394 222.697734,463.321891 226.032967,463.097506 C229.368201,463.321891 232.779277,462.159394 235.328656,459.610015 L581.420422,113.518249 C586.106713,108.831957 586.106713,101.233977 581.420422,96.5476858 L535.17924,50.3065037 C530.492948,45.6202122 522.894969,45.6202122 518.208677,50.3065037 L226.032967,342.482214 Z" id="path-1"></path>
    </defs>
    <g id="Landing-Pages" stroke="none" stroke-width="1" fill="none" fill-rule="evenodd">
        <g id="Deliver" transform="translate(-50.000000, -50.000000)">
            <g id="Group-2" transform="translate(50.000000, 50.000000)">
                <g id="Group" fill-rule="nonzero" fill="#00FFBD" fill-opacity="0.65">
                    <circle id="Background" cx="270" cy="270" r="270"></circle>
                </g>
                <g id="Combined-Shape">
                    <use fill="#FFFFFF" fill-rule="evenodd" xlink:href="#path-1"></use>
                    <path stroke="#787878" stroke-width="4" d="M519.622891,51.7207173 L226.032967,345.310641 L91.2828126,210.560486 C87.3775697,206.655243 81.0459199,206.655243 77.140677,210.560486 L30.8994949,256.801668 C26.994252,260.706911 26.994252,267.038561 30.8994949,270.943804 L218.151492,458.195801 C220.220769,460.265078 223.034411,461.294719 225.898717,461.102017 L226.032967,461.092985 L226.167218,461.102017 C229.031523,461.294719 231.845165,460.265078 233.914442,458.195801 L580.006208,112.104035 C583.911451,108.198792 583.911451,101.867142 580.006208,97.9618993 L533.765026,51.7207173 C529.859783,47.8154744 523.528134,47.8154744 519.622891,51.7207173 Z"></path>
                </g>
            </g>
        </g>
    </g>
</svg>